# This file uses centimeters as units for non-parametric coordinates.

v 5.127607 7.019534 -4.099530
v 5.209000 7.021188 -4.114628
v 5.290393 7.019534 -4.099530
v 5.289271 7.070167 -3.916314
v 5.209000 7.076868 -3.923552
v 5.128728 7.070167 -3.916314
v 5.136165 7.103164 -3.934807
v 5.209000 7.110343 -3.938459
v 5.281835 7.103164 -3.934807
v 5.130769 7.078814 -4.072167
v 5.209000 7.082537 -4.084854
v 5.287231 7.078814 -4.072051
v 5.138935 7.140448 -4.062428
v 5.209000 7.146380 -4.073733
v 5.279064 7.140448 -4.062544
v 5.142909 7.146950 -3.955033
v 5.209000 7.154338 -3.959819
v 5.275091 7.146950 -3.955033
v 5.411997 7.006917 -4.042141
v 5.414160 7.006759 -4.040065
v 5.414534 7.006890 -4.037196
v 5.377428 7.086823 -4.027951
v 5.377091 7.086595 -4.030936
v 5.374871 7.086325 -4.033042
v 5.003462 6.999298 -4.037210
v 5.003851 6.999228 -4.040073
v 5.006040 6.999535 -4.042158
v 5.040563 7.086821 -4.028832
v 5.040889 7.086596 -4.031793
v 5.043062 7.086331 -4.033856
v 5.273264 7.191766 -4.059547
v 5.272950 7.194515 -4.058264
v 5.272821 7.195594 -4.055463
v 5.209000 7.205835 -4.069414
v 5.209000 7.204726 -4.072212
v 5.209000 7.201983 -4.073388
v 5.145177 7.195594 -4.055459
v 5.145049 7.194513 -4.058260
v 5.144735 7.191762 -4.059539
v 5.272821 7.194056 -3.984240
v 5.272862 7.193143 -3.981184
v 5.272976 7.190781 -3.978958
v 5.209000 7.204880 -3.994206
v 5.209000 7.204113 -3.991395
v 5.209000 7.202072 -3.989286
v 5.145912 7.191162 -3.979079
v 5.145375 7.193244 -3.981162
v 5.145177 7.194052 -3.984038
v 5.317037 7.159824 -4.044051
v 5.318419 7.161654 -4.042217
v 5.318665 7.162397 -4.039391
v 5.309454 7.163638 -3.970892
v 5.308453 7.163198 -3.968189
v 5.306488 7.161904 -3.966407
v 5.383673 7.019476 -3.903216
v 5.381855 7.020384 -3.901100
v 5.378466 7.022179 -3.900711
v 5.354205 7.092101 -3.935225
v 5.352793 7.091943 -3.932686
v 5.350351 7.091213 -3.931266
v 5.099337 7.162397 -4.039381
v 5.099586 7.161648 -4.042206
v 5.100972 7.159806 -4.044024
v 5.111511 7.161904 -3.966407
v 5.109546 7.163198 -3.968189
v 5.108545 7.163638 -3.970892
v 5.039547 7.014959 -3.900713
v 5.036148 7.012900 -3.901096
v 5.034329 7.011888 -3.903207
v 5.063801 7.092101 -3.935229
v 5.065211 7.091952 -3.932692
v 5.067657 7.091247 -3.931284
v 5.344003 7.128833 -4.032779
v 5.343355 7.128954 -4.036051
v 5.340833 7.129407 -4.038219
v 5.333359 7.130589 -3.955537
v 5.331912 7.130953 -3.952841
v 5.329119 7.131722 -3.951880
v 5.073987 7.128831 -4.032020
v 5.074596 7.128946 -4.035207
v 5.077012 7.129379 -4.037328
v 5.084635 7.130588 -3.955534
v 5.086119 7.130963 -3.952842
v 5.088994 7.131755 -3.951886
vt 0.454129 0.000000
vt 0.545871 0.750000
vt 0.500000 0.000000
vt 0.500000 0.750000
vt 0.500000 0.682277
vt 0.500000 0.106707
vt 0.368992 0.000000
vt 0.869180 0.000000
vt 0.630985 0.000000
vt 0.867010 0.159098
vt 0.130837 0.000000
vt 0.366063 0.147486
vt 0.406276 0.489218
vt 0.443319 0.262260
vt 0.593159 0.261495
vt 0.562235 0.489398
vt 0.500000 0.261987
vt 0.437781 0.488756
vt 0.556682 0.262272
vt 0.500000 0.490252
vt 0.500000 0.506652
vt 0.561265 0.507779
vt 0.500000 0.621396
vt 0.363315 0.250000
vt 0.133050 0.159096
vt 0.406840 0.261462
vt 0.375000 0.488620
vt 0.625000 0.261471
vt 0.593723 0.489218
vt 0.633838 0.147481
vt 0.863510 0.249999
vt 0.377101 0.000000
vt 0.449643 0.106707
vt 0.438055 0.508258
vt 0.445577 0.621395
vt 0.622230 0.145544
vt 0.545871 0.000000
vt 0.621232 0.598066
vt 0.554422 0.621397
vt 0.500000 0.244345
vt 0.499999 0.163768
vt 0.443875 0.243894
vt 0.621228 0.750000
vt 0.550374 0.682277
vt 0.620330 0.508032
vt 0.590862 0.510087
vt 0.378773 0.598142
vt 0.454129 0.750000
vt 0.379531 0.507794
vt 0.449625 0.682276
vt 0.377825 0.145514
vt 0.447243 0.163768
vt 0.379100 0.245106
vt 0.408797 0.243921
vt 0.621069 0.245308
vt 0.550357 0.106707
vt 0.556125 0.243887
vt 0.552756 0.163768
vt 0.622877 0.000001
vt 0.409138 0.510087
vt 0.378761 0.750000
vt 0.591196 0.243887
vt 0.375000 0.261685
vt 0.136381 0.249999
vt 0.636470 0.249999
vt 0.625000 0.488509
vt 0.375000 0.000000
vt 0.375000 0.147041
vt 0.625000 0.000000
vt 0.625000 0.147040
vt 0.443618 0.250000
vt 0.500000 0.250000
vt 0.556382 0.250000
vt 0.437506 0.500000
vt 0.500000 0.500000
vt 0.562494 0.500001
vt 0.406869 0.250000
vt 0.406250 0.500000
vt 0.375000 0.750001
vt 0.125000 0.159497
vt 0.375000 0.590504
vt 0.593131 0.250000
vt 0.593750 0.499999
vt 0.875000 0.000000
vt 0.625000 0.590504
vt 0.875000 0.159496
vt 0.375000 0.250000
vt 0.375000 0.500001
vt 0.125000 0.250000
vt 0.625000 0.249999
vt 0.625000 0.500000
vt 0.875000 0.250000
vn 0.269884 0.392756 -0.879150
vn 0.000342 0.432102 -0.901825
vn 0.000230 0.334730 -0.942314
vn 0.318235 0.304180 -0.897887
vn -0.279645 0.381914 -0.880875
vn -0.324240 0.297059 -0.898123
vn 0.000000 0.434137 0.900847
vn -0.022120 0.439889 0.897780
vn -0.052708 0.432436 0.900123
vn 0.000000 0.446917 0.894575
vn 0.019457 0.444607 0.895514
vn 0.044025 0.449684 0.892102
vn -0.274340 0.144216 -0.950757
vn -0.000248 0.114896 -0.993378
vn 0.273368 0.140076 -0.951656
vn 0.000307 0.477242 0.878772
vn -0.014576 0.459445 0.888087
vn 0.014579 0.459705 0.887952
vn 0.893041 0.417093 0.168854
vn 0.892723 0.429969 -0.134802
vn 0.854770 0.501123 -0.135069
vn 0.868716 0.468426 0.160963
vn 0.635420 0.373421 -0.675868
vn 0.406825 0.341878 -0.847120
vn 0.407321 0.296268 -0.863895
vn 0.629652 0.387084 -0.673576
vn 0.268016 0.963345 0.011599
vn 0.339813 0.880654 -0.330114
vn -0.000034 0.933121 -0.359561
vn -0.000095 0.999624 -0.027407
vn 0.402298 0.400075 -0.823466
vn 0.245290 0.081038 -0.966057
vn -0.000379 0.060297 -0.998180
vn -0.000052 0.420686 -0.907206
vn 0.000358 0.534792 0.844984
vn 0.001125 0.920045 0.391811
vn -0.235275 0.814930 0.529656
vn 0.010936 0.511200 0.859392
vn -0.000421 0.999782 0.020879
vn -0.456578 0.888575 0.044393
vn -0.899479 0.389498 0.198062
vn -0.766750 0.460473 0.447279
vn -0.760680 0.480546 0.436396
vn -0.891619 0.413765 0.183887
vn -0.355651 0.457134 0.815194
vn -0.143268 0.438810 0.887085
vn -0.084784 0.436116 0.895888
vn -0.347740 0.528478 0.774460
vn -0.881429 0.442393 0.165445
vn -0.905876 0.385990 0.174356
vn 0.879037 0.441825 0.179124
vn 0.885893 0.421251 0.194271
vn 0.727964 0.680143 0.086457
vn 0.666309 0.744010 0.049812
vn 0.455605 0.889067 0.044541
vn -0.267994 0.963351 0.011571
vn -0.664719 0.745460 0.049374
vn -0.726922 0.681189 0.086982
vn -0.009941 0.511970 0.858946
vn 0.794414 0.598184 0.105273
vn 0.795931 0.590446 0.133670
vn -0.794782 0.597417 0.106844
vn -0.796796 0.589173 0.134133
vn 0.104986 0.493163 0.863579
vn 0.071729 0.462148 0.883897
vn -0.412450 0.288000 -0.864257
vn -0.417157 0.322139 -0.849827
vn -0.071735 0.462168 0.883886
vn -0.246194 0.078227 -0.966058
vn -0.104788 0.493004 0.863694
vn 0.076235 0.453978 0.887745
vn 0.124470 0.462782 0.877690
vn 0.396547 0.186053 -0.898963
vn 0.405961 0.130698 -0.904496
vn -0.396921 0.197975 -0.896248
vn -0.408008 0.121130 -0.904907
vn 0.792502 0.589543 -0.156141
vn 0.617975 0.389682 -0.682829
vn -0.649645 0.340945 -0.679498
vn -0.638355 0.374592 -0.672446
vn -0.908095 0.397503 -0.131740
vn -0.868408 0.477958 -0.131997
vn 0.575549 0.362311 -0.733126
vn 0.683770 0.692458 -0.230133
vn -0.339910 0.880441 -0.330583
vn -0.401537 0.398046 -0.824820
vn -0.682681 0.693115 -0.231383
vn -0.578187 0.354990 -0.734630
vn 0.423487 0.860820 0.282219
vn 0.653312 0.690735 0.309949
vn 0.038730 0.697517 0.715521
vn 0.293050 0.634078 0.715589
vn -0.281899 0.627258 0.726003
vn -0.650619 0.690207 0.316714
vn 0.714138 0.601009 0.358879
vn 0.346781 0.585558 0.732710
vn 0.338515 0.492148 0.801996
vn 0.343029 0.542665 0.766711
vn 0.748268 0.497379 0.438985
vn 0.744669 0.511878 0.428309
vn -0.792255 0.590587 -0.153427
vn -0.617738 0.403520 -0.674960
vn -0.712591 0.601405 0.361284
vn -0.344301 0.584591 0.734650
s 1
f 3/1/1 2/3/2 11/6/3 12/33/4
f 2/3/2 1/37/5 10/56/6 11/6/3
s 2
f 8/5/7 7/44/8 6/2/9 5/4/10
f 9/50/11 8/5/7 5/4/10 4/48/12
s 1
f 11/6/3 10/56/6 13/58/13 14/41/14
f 12/33/4 11/6/3 14/41/14 15/52/15
s 2
f 17/23/16 16/39/17 7/44/8 8/5/7
f 18/35/18 17/23/16 8/5/7 9/50/11
f 21/7/19 20/67/20 23/68/21 22/12/22
s 1
f 20/67/23 19/32/24 24/51/25 23/68/26
s 2
f 33/14/27 32/71/28 35/72/29 34/17/30
s 1
f 32/71/31 31/42/32 36/40/33 35/72/34
s 2
f 45/21/35 44/75/36 47/76/37 46/22/38
f 44/75/36 43/20/39 48/16/40 47/76/37
f 69/8/41 68/84/42 71/86/43 70/10/44
f 68/84/45 67/43/46 72/38/47 71/85/48
f 28/30/49 25/9/50 69/8/41 70/10/44
f 58/25/51 55/11/52 21/7/19 22/12/22
f 52/13/53 51/26/54 33/14/27 40/18/55
f 37/19/56 61/15/57 66/29/58 48/16/40
f 33/14/27 34/17/30 43/20/39 40/18/55
f 34/17/30 37/19/56 48/16/40 43/20/39
f 42/34/59 45/21/35 17/23/16 18/35/18
f 45/21/35 46/22/38 16/39/17 17/23/16
f 22/12/22 73/24/60 76/64/61 58/25/51
f 73/63/60 51/26/54 52/13/53 76/27/61
f 61/15/57 79/28/62 82/66/63 66/29/58
f 79/65/62 28/30/49 70/10/44 82/31/63
s 1
f 24/51/25 19/32/24 3/1/1 12/33/4
s 2
f 54/60/64 42/34/59 18/35/18 78/49/65
s 1
f 30/36/66 10/56/6 1/37/5 27/59/67
s 2
f 72/38/47 7/44/8 16/39/17 84/45/68
s 1
f 14/41/14 13/58/13 39/57/69 36/40/33
f 15/52/15 14/41/14 36/40/33 31/42/32
s 2
f 72/38/47 67/43/46 6/2/9 7/44/8
f 84/45/68 16/39/17 46/22/38 64/46/70
f 60/47/71 9/50/11 4/48/12 57/61/72
f 78/49/65 18/35/18 9/50/11 60/47/71
s 1
f 24/51/25 12/33/4 15/52/15 75/53/73
f 75/53/73 15/52/15 31/42/32 49/54/74
f 81/55/75 13/58/13 10/56/6 30/36/66
f 63/62/76 39/57/69 13/58/13 81/55/75
s 2
f 22/12/22 23/68/21 74/87/77 73/24/60
s 1
f 23/68/26 24/51/25 75/53/73 74/87/78
f 27/59/67 26/69/79 29/70/80 30/36/66
s 2
f 26/69/81 25/9/50 28/30/49 29/70/82
s 1
f 31/42/32 32/71/31 50/77/83 49/54/74
s 2
f 32/71/28 33/14/27 51/26/54 50/77/84
f 34/17/30 35/72/29 38/73/85 37/19/56
s 1
f 35/72/34 36/40/33 39/57/69 38/73/86
s 2
f 37/19/56 38/73/85 62/82/87 61/15/57
s 1
f 38/73/86 39/57/69 63/62/76 62/82/88
s 2
f 40/18/55 41/74/89 53/78/90 52/13/53
f 41/74/91 42/34/59 54/60/64 53/78/92
f 42/34/59 41/74/91 44/75/36 45/21/35
f 41/74/89 40/18/55 43/20/39 44/75/36
f 46/22/38 47/76/37 65/83/93 64/46/70
f 47/76/37 48/16/40 66/29/58 65/83/94
f 52/13/53 53/78/90 77/88/95 76/27/61
f 53/78/92 54/60/64 78/49/65 77/88/96
f 57/61/72 56/79/97 59/81/98 60/47/71
f 56/79/99 55/11/52 58/25/51 59/80/100
f 61/15/57 62/82/87 80/90/101 79/28/62
s 1
f 62/82/88 63/62/76 81/55/75 80/90/102
s 2
f 70/10/44 71/86/43 83/92/103 82/31/63
f 71/85/48 72/38/47 84/45/68 83/91/104
s 1
f 49/54/74 50/77/83 74/87/78 75/53/73
s 2
f 50/77/84 51/26/54 73/63/60 74/87/77
f 60/47/71 59/81/98 77/88/96 78/49/65
f 59/80/100 58/25/51 76/64/61 77/89/95
s 1
f 30/36/66 29/70/80 80/90/102 81/55/75
s 2
f 29/70/82 28/30/49 79/65/62 80/90/101
f 64/46/70 65/83/93 83/91/104 84/45/68
f 65/83/94 66/29/58 82/66/63 83/91/103
