# This file uses centimeters as units for non-parametric coordinates.

v 0.527705 0.997474 -0.011981
v 0.436378 0.997474 -0.011981
v 0.345050 0.997474 -0.011981
v 0.253723 0.997474 -0.011981
v 0.162395 0.997474 -0.011981
v 0.071069 0.997474 -0.011981
v 0.527705 1.097939 -0.011981
v 0.436378 1.097939 -0.011981
v 0.345050 1.097939 -0.011981
v 0.253723 1.097939 -0.011981
v 0.162395 1.097939 -0.011981
v 0.071069 1.097939 -0.011981
v 0.527705 1.198404 -0.011981
v 0.436378 1.198404 -0.011981
v 0.345050 1.198404 -0.011981
v 0.253723 1.198404 -0.011981
v 0.162395 1.198404 -0.011981
v 0.071069 1.198404 -0.011981
v 0.527705 1.298869 -0.011981
v 0.436378 1.298869 -0.011981
v 0.345050 1.298869 -0.011981
v 0.253723 1.298869 -0.011981
v 0.162395 1.298869 -0.011981
v 0.071069 1.298869 -0.011981
v 0.527705 1.399334 -0.011981
v 0.436378 1.399334 -0.011981
v 0.345050 1.399334 -0.011981
v 0.253723 1.399334 -0.011981
v 0.162395 1.399334 -0.011981
v 0.071069 1.399334 -0.011981
v 0.527705 1.499799 -0.011981
v 0.436378 1.499799 -0.011981
v 0.345050 1.499799 -0.011981
v 0.253723 1.499799 -0.011981
v 0.162395 1.499799 -0.011981
v 0.071069 1.499799 -0.011981
v 0.527705 1.600264 -0.011981
v 0.436378 1.600264 -0.011981
v 0.345050 1.600264 -0.011981
v 0.253723 1.600264 -0.011981
v 0.162395 1.600264 -0.011981
v 0.071069 1.600264 -0.011981
v 0.527705 1.700729 -0.011981
v 0.436378 1.700729 -0.011981
v 0.345050 1.700729 -0.011981
v 0.253723 1.700729 -0.011981
v 0.162395 1.700729 -0.011981
v 0.071069 1.700729 -0.011981
v 0.527705 1.801194 -0.011981
v 0.436378 1.801194 -0.011981
v 0.345050 1.801194 -0.011981
v 0.253723 1.801194 -0.011981
v 0.162395 1.801194 -0.011981
v 0.071069 1.801194 -0.011981
v 0.527705 1.901659 -0.011981
v 0.436378 1.901659 -0.011981
v 0.345050 1.901659 -0.011981
v 0.253723 1.901659 -0.011981
v 0.162395 1.901659 -0.011981
v 0.071069 1.901659 -0.011981
v 0.527705 2.002124 -0.011981
v 0.436378 2.002124 -0.011981
v 0.345050 2.002124 -0.011981
v 0.253723 2.002124 -0.011981
v 0.162395 2.002124 -0.011981
v 0.071069 2.002124 -0.011981
v 0.527705 2.002124 0.025481
v 0.436378 2.002124 0.025481
v 0.345050 2.002124 0.025481
v 0.253723 2.002124 0.025481
v 0.162395 2.002124 0.025481
v 0.071069 2.002124 0.025481
v 0.527705 1.901659 0.025481
v 0.436378 1.901659 0.025481
v 0.345050 1.901659 0.025481
v 0.253723 1.901659 0.025481
v 0.162395 1.901659 0.025481
v 0.071069 1.901659 0.025481
v 0.527705 1.801194 0.025481
v 0.436378 1.801194 0.025481
v 0.345050 1.801194 0.025481
v 0.253723 1.801194 0.025481
v 0.162395 1.801194 0.025481
v 0.071069 1.801194 0.025481
v 0.527705 1.700729 0.025481
v 0.436378 1.700729 0.025481
v 0.345050 1.700729 0.025481
v 0.253723 1.700729 0.025481
v 0.162395 1.700729 0.025481
v 0.071069 1.700729 0.025481
v 0.527705 1.600264 0.025481
v 0.436378 1.600264 0.025481
v 0.345050 1.600264 0.025481
v 0.253723 1.600264 0.025481
v 0.162395 1.600264 0.025481
v 0.071069 1.600264 0.025481
v 0.527705 1.499799 0.025481
v 0.436378 1.499799 0.025481
v 0.345050 1.499799 0.025481
v 0.253723 1.499799 0.025481
v 0.162395 1.499799 0.025481
v 0.071069 1.499799 0.025481
v 0.527705 1.399334 0.025481
v 0.436378 1.399334 0.025481
v 0.345050 1.399334 0.025481
v 0.253723 1.399334 0.025481
v 0.162395 1.399334 0.025481
v 0.071069 1.399334 0.025481
v 0.527705 1.298869 0.025481
v 0.436378 1.298869 0.025481
v 0.345050 1.298869 0.025481
v 0.253723 1.298869 0.025481
v 0.162395 1.298869 0.025481
v 0.071069 1.298869 0.025481
v 0.527705 1.198404 0.025481
v 0.436378 1.198404 0.025481
v 0.345050 1.198404 0.025481
v 0.253723 1.198404 0.025481
v 0.162395 1.198404 0.025481
v 0.071069 1.198404 0.025481
v 0.527705 1.097939 0.025481
v 0.436378 1.097939 0.025481
v 0.345050 1.097939 0.025481
v 0.253723 1.097939 0.025481
v 0.162395 1.097939 0.025481
v 0.071069 1.097939 0.025481
v 0.527705 0.997474 0.025481
v 0.436378 0.997474 0.025481
v 0.345050 0.997474 0.025481
v 0.253723 0.997474 0.025481
v 0.162395 0.997474 0.025481
v 0.071069 0.997474 0.025481
v 0.071069 2.002124 0.006750
v 0.162395 2.002124 0.006750
v 0.253723 2.002124 0.006750
v 0.345050 2.002124 0.006750
v 0.436378 2.002124 0.006750
v 0.527705 2.002124 0.006750
v 0.527705 1.901659 0.006750
v 0.527705 1.801194 0.006750
v 0.527705 1.700729 0.006750
v 0.527705 1.600264 0.006750
v 0.527705 1.499799 0.006750
v 0.527705 1.399334 0.006750
v 0.527705 1.298869 0.006750
v 0.527705 1.198404 0.006750
v 0.527705 1.097939 0.006750
v 0.527705 0.997474 0.006750
v 0.436378 0.997474 0.006750
v 0.345050 0.997474 0.006750
v 0.253723 0.997474 0.006750
v 0.162395 0.997474 0.006750
v 0.071069 0.997474 0.006750
v 0.071069 1.097939 0.006750
v 0.071069 1.198404 0.006750
v 0.071069 1.298869 0.006750
v 0.071069 1.399334 0.006750
v 0.071069 1.499799 0.006750
v 0.071069 1.600264 0.006750
v 0.071069 1.700729 0.006750
v 0.071069 1.801194 0.006750
v 0.071069 1.901659 0.006750
vt 0.491813 0.161401
vt 0.491813 0.199537
vt 0.451140 0.199537
vt 0.449680 0.161401
vt 0.491813 0.238620
vt 0.452069 0.238620
vt 0.491813 0.277806
vt 0.452069 0.277806
vt 0.491813 0.316889
vt 0.451140 0.316889
vt 0.491813 0.355025
vt 0.449679 0.355025
vt 0.408726 0.199537
vt 0.408289 0.161401
vt 0.409075 0.238620
vt 0.409075 0.277806
vt 0.408725 0.316889
vt 0.408289 0.355025
vt 0.366389 0.199537
vt 0.366269 0.161401
vt 0.366502 0.238620
vt 0.366503 0.277806
vt 0.366389 0.316889
vt 0.366268 0.355025
vt 0.324016 0.199537
vt 0.323957 0.161401
vt 0.324057 0.238620
vt 0.324055 0.277806
vt 0.324017 0.316889
vt 0.323957 0.355025
vt 0.281661 0.199537
vt 0.281660 0.161401
vt 0.281658 0.238620
vt 0.281662 0.277806
vt 0.281659 0.316889
vt 0.281660 0.355025
vt 0.239303 0.199537
vt 0.239363 0.161401
vt 0.239267 0.238620
vt 0.239262 0.277806
vt 0.239306 0.316889
vt 0.239363 0.355025
vt 0.196933 0.199537
vt 0.197052 0.161401
vt 0.196815 0.238620
vt 0.196820 0.277806
vt 0.196930 0.316889
vt 0.197051 0.355025
vt 0.154593 0.199537
vt 0.155031 0.161401
vt 0.154247 0.238620
vt 0.154243 0.277806
vt 0.154596 0.316889
vt 0.155031 0.355025
vt 0.112180 0.199537
vt 0.113641 0.161401
vt 0.111250 0.238620
vt 0.111252 0.277806
vt 0.112179 0.316889
vt 0.113641 0.355025
vt 0.071506 0.199537
vt 0.071506 0.161401
vt 0.071506 0.238620
vt 0.071506 0.277806
vt 0.071506 0.316889
vt 0.071506 0.355025
vt 0.491813 0.199537
vt 0.491813 0.161401
vt 0.491813 0.238620
vt 0.491813 0.277806
vt 0.491813 0.316889
vt 0.491813 0.355025
vt 0.451135 0.199537
vt 0.449634 0.161401
vt 0.452076 0.238620
vt 0.452077 0.277806
vt 0.451136 0.316889
vt 0.449633 0.355025
vt 0.408752 0.199537
vt 0.408306 0.161401
vt 0.409109 0.238620
vt 0.409109 0.277806
vt 0.408752 0.316889
vt 0.408307 0.355025
vt 0.366423 0.199537
vt 0.366274 0.161401
vt 0.366546 0.238620
vt 0.366545 0.277806
vt 0.366423 0.316889
vt 0.366276 0.355025
vt 0.324080 0.199537
vt 0.324075 0.161401
vt 0.324108 0.238620
vt 0.324109 0.277806
vt 0.324080 0.316889
vt 0.324072 0.355025
vt 0.281661 0.199537
vt 0.281654 0.161401
vt 0.281660 0.238620
vt 0.281660 0.277806
vt 0.281660 0.316889
vt 0.281660 0.355025
vt 0.239239 0.199537
vt 0.239255 0.161401
vt 0.239211 0.238620
vt 0.239212 0.277806
vt 0.239240 0.316889
vt 0.239249 0.355025
vt 0.196898 0.199537
vt 0.197038 0.161401
vt 0.196775 0.238620
vt 0.196775 0.277806
vt 0.196898 0.316889
vt 0.197042 0.355025
vt 0.154568 0.199537
vt 0.155018 0.161401
vt 0.154211 0.238620
vt 0.154211 0.277806
vt 0.154568 0.316889
vt 0.155017 0.355025
vt 0.112184 0.199537
vt 0.113686 0.161401
vt 0.111244 0.238620
vt 0.111244 0.277806
vt 0.112184 0.316889
vt 0.113685 0.355025
vt 0.071506 0.199537
vt 0.071506 0.161401
vt 0.071506 0.238620
vt 0.071506 0.277806
vt 0.071506 0.316889
vt 0.071506 0.355025
vt 0.071506 0.361895
vt 0.501100 0.316889
vt 0.501100 0.277806
vt 0.501100 0.238620
vt 0.501100 0.199537
vt 0.491813 0.154530
vt 0.449562 0.154530
vt 0.408287 0.154530
vt 0.366271 0.154530
vt 0.324076 0.154530
vt 0.281665 0.154530
vt 0.239236 0.154530
vt 0.197055 0.154530
vt 0.155031 0.154530
vt 0.113758 0.154530
vt 0.062221 0.161401
vt 0.062221 0.199537
vt 0.062221 0.238620
vt 0.062221 0.277806
vt 0.062221 0.316889
vt 0.071506 0.361895
vt 0.113758 0.361895
vt 0.155032 0.361895
vt 0.197052 0.361895
vt 0.239241 0.361895
vt 0.281660 0.361895
vt 0.324079 0.361895
vt 0.366270 0.361895
vt 0.408286 0.361895
vt 0.449562 0.361895
vt 0.113702 0.361895
vt 0.501100 0.355025
vt 0.155050 0.361895
vt 0.197052 0.361895
vt 0.239370 0.361895
vt 0.281660 0.361895
vt 0.323950 0.361895
vt 0.366269 0.361895
vt 0.408270 0.361895
vt 0.449618 0.361895
vt 0.501100 0.355025
vt 0.501100 0.316889
vt 0.501100 0.277806
vt 0.501100 0.238620
vt 0.501100 0.199537
vt 0.491813 0.154530
vt 0.449618 0.154530
vt 0.408270 0.154530
vt 0.366268 0.154530
vt 0.323950 0.154530
vt 0.281660 0.154530
vt 0.239371 0.154530
vt 0.197051 0.154530
vt 0.155051 0.154530
vt 0.113702 0.154530
vt 0.062221 0.161401
vt 0.062221 0.199537
vt 0.062221 0.238620
vt 0.062221 0.277806
vt 0.062221 0.316889
vt 0.062221 0.355025
vt 0.491813 0.361895
vt 0.071506 0.154530
vt 0.501100 0.161401
vt 0.501100 0.161401
vt 0.071506 0.154530
vt 0.062221 0.355025
vt 0.491813 0.361895
vn 0.000000 0.000000 -1.000000
vn 0.000000 0.000000 -1.000000
vn 0.000000 0.000000 -1.000000
vn 0.000000 0.000000 -1.000000
vn 0.000000 0.000000 -1.000000
vn 0.000000 0.000000 -1.000000
vn 0.000000 0.000000 -1.000000
vn 0.000000 0.000000 -1.000000
vn 0.000000 0.000000 -1.000000
vn 0.000000 0.000000 -1.000000
vn 0.000000 0.000000 -1.000000
vn 0.000000 0.000000 -1.000000
vn 0.000000 0.000000 -1.000000
vn 0.000000 0.000000 -1.000000
vn 0.000000 0.000000 -1.000000
vn 0.000000 0.000000 -1.000000
vn 0.000000 0.000000 -1.000000
vn 0.000000 0.000000 -1.000000
vn 0.000000 0.000000 -1.000000
vn 0.000000 0.000000 -1.000000
vn 0.000000 0.000000 -1.000000
vn 0.000000 0.000000 -1.000000
vn 0.000000 0.000000 -1.000000
vn 0.000000 0.000000 -1.000000
vn 0.000000 0.000000 -1.000000
vn 0.000000 0.000000 -1.000000
vn 0.000000 0.000000 -1.000000
vn 0.000000 0.000000 -1.000000
vn 0.000000 0.000000 -1.000000
vn 0.000000 0.000000 -1.000000
vn 0.000000 0.000000 -1.000000
vn 0.000000 0.000000 -1.000000
vn 0.000000 0.000000 -1.000000
vn 0.000000 0.000000 -1.000000
vn 0.000000 0.000000 -1.000000
vn 0.000000 0.000000 -1.000000
vn 0.000000 0.000000 -1.000000
vn 0.000000 0.000000 -1.000000
vn 0.000000 0.000000 -1.000000
vn 0.000000 0.000000 -1.000000
vn 0.000000 0.000000 -1.000000
vn 0.000000 0.000000 -1.000000
vn 0.000000 0.000000 -1.000000
vn 0.000000 0.000000 -1.000000
vn 0.000000 0.000000 -1.000000
vn 0.000000 0.000000 -1.000000
vn 0.000000 0.000000 -1.000000
vn 0.000000 0.000000 -1.000000
vn 0.000000 0.000000 -1.000000
vn 0.000000 0.000000 -1.000000
vn 0.000000 0.000000 -1.000000
vn 0.000000 0.000000 -1.000000
vn 0.000000 0.000000 -1.000000
vn 0.000000 0.000000 -1.000000
vn 0.000000 0.000000 -1.000000
vn 0.000000 0.000000 -1.000000
vn 0.000000 0.000000 -1.000000
vn 0.000000 0.000000 -1.000000
vn 0.000000 0.000000 -1.000000
vn 0.000000 0.000000 -1.000000
vn 0.000000 0.000000 -1.000000
vn 0.000000 0.000000 -1.000000
vn 0.000000 0.000000 -1.000000
vn 0.000000 0.000000 -1.000000
vn 0.000000 0.000000 -1.000000
vn 0.000000 0.000000 -1.000000
vn 0.000000 1.000000 -0.000000
vn 0.000000 1.000000 -0.000000
vn 0.000000 1.000000 -0.000000
vn 0.000000 1.000000 -0.000000
vn 0.000000 1.000000 -0.000000
vn 0.000000 1.000000 -0.000000
vn 0.000000 1.000000 -0.000000
vn 0.000000 1.000000 -0.000000
vn 0.000000 1.000000 -0.000000
vn 0.000000 1.000000 -0.000000
vn 0.000000 1.000000 -0.000000
vn 0.000000 1.000000 -0.000000
vn -0.000000 0.000000 1.000000
vn -0.000000 0.000000 1.000000
vn -0.000000 0.000000 1.000000
vn -0.000000 0.000000 1.000000
vn -0.000000 0.000000 1.000000
vn -0.000000 0.000000 1.000000
vn -0.000000 0.000000 1.000000
vn -0.000000 0.000000 1.000000
vn -0.000000 0.000000 1.000000
vn -0.000000 0.000000 1.000000
vn -0.000000 0.000000 1.000000
vn -0.000000 0.000000 1.000000
vn -0.000000 0.000000 1.000000
vn -0.000000 0.000000 1.000000
vn -0.000000 0.000000 1.000000
vn -0.000000 0.000000 1.000000
vn -0.000000 0.000000 1.000000
vn -0.000000 0.000000 1.000000
vn -0.000000 0.000000 1.000000
vn -0.000000 0.000000 1.000000
vn -0.000000 0.000000 1.000000
vn -0.000000 0.000000 1.000000
vn -0.000000 0.000000 1.000000
vn -0.000000 0.000000 1.000000
vn -0.000000 0.000000 1.000000
vn -0.000000 0.000000 1.000000
vn -0.000000 0.000000 1.000000
vn -0.000000 0.000000 1.000000
vn -0.000000 0.000000 1.000000
vn -0.000000 0.000000 1.000000
vn -0.000000 0.000000 1.000000
vn -0.000000 0.000000 1.000000
vn -0.000000 0.000000 1.000000
vn -0.000000 0.000000 1.000000
vn -0.000000 0.000000 1.000000
vn -0.000000 0.000000 1.000000
vn -0.000000 0.000000 1.000000
vn -0.000000 0.000000 1.000000
vn -0.000000 0.000000 1.000000
vn -0.000000 0.000000 1.000000
vn -0.000000 0.000000 1.000000
vn -0.000000 0.000000 1.000000
vn -0.000000 0.000000 1.000000
vn -0.000000 0.000000 1.000000
vn -0.000000 0.000000 1.000000
vn -0.000000 0.000000 1.000000
vn -0.000000 0.000000 1.000000
vn -0.000000 0.000000 1.000000
vn -0.000000 0.000000 1.000000
vn -0.000000 0.000000 1.000000
vn -0.000000 0.000000 1.000000
vn -0.000000 0.000000 1.000000
vn -0.000000 0.000000 1.000000
vn -0.000000 0.000000 1.000000
vn -0.000000 0.000000 1.000000
vn -0.000000 0.000000 1.000000
vn -0.000000 0.000000 1.000000
vn -0.000000 0.000000 1.000000
vn -0.000000 0.000000 1.000000
vn -0.000000 0.000000 1.000000
vn -0.000000 0.000000 1.000000
vn -0.000000 0.000000 1.000000
vn -0.000000 0.000000 1.000000
vn -0.000000 0.000000 1.000000
vn -0.000000 0.000000 1.000000
vn -0.000000 0.000000 1.000000
vn 0.000000 -1.000000 0.000000
vn 0.000000 -1.000000 0.000000
vn 0.000000 -1.000000 0.000000
vn 0.000000 -1.000000 0.000000
vn 0.000000 -1.000000 0.000000
vn 0.000000 -1.000000 0.000000
vn 0.000000 -1.000000 0.000000
vn 0.000000 -1.000000 0.000000
vn 0.000000 -1.000000 0.000000
vn 0.000000 -1.000000 0.000000
vn 0.000000 -1.000000 0.000000
vn 0.000000 -1.000000 0.000000
vn -1.000000 0.000000 -0.000001
vn -1.000000 0.000000 -0.000000
vn -1.000000 0.000000 -0.000000
vn -1.000000 0.000000 -0.000001
vn -1.000000 0.000000 0.000000
vn -1.000000 0.000000 -0.000001
vn -1.000000 0.000000 -0.000000
vn -1.000000 0.000000 -0.000001
vn -1.000000 0.000000 -0.000000
vn -1.000000 0.000000 -0.000001
vn -1.000000 0.000000 -0.000000
vn -1.000000 0.000000 -0.000001
vn -1.000000 0.000000 0.000000
vn -1.000000 0.000000 -0.000001
vn -1.000000 0.000000 -0.000000
vn -1.000000 0.000000 -0.000001
vn -1.000000 0.000000 -0.000000
vn -1.000000 0.000000 -0.000001
vn -1.000000 0.000000 -0.000000
vn -1.000000 0.000000 -0.000001
vn -1.000000 0.000000 -0.000000
vn -1.000000 0.000000 -0.000001
vn 1.000000 0.000000 0.000000
vn 1.000000 0.000000 0.000000
vn 1.000000 0.000000 0.000000
vn 1.000000 0.000000 0.000000
vn 1.000000 0.000000 0.000000
vn 1.000000 0.000000 0.000000
vn 1.000000 0.000000 0.000000
vn 1.000000 0.000000 0.000000
vn 1.000000 0.000000 0.000000
vn 1.000000 0.000000 0.000000
vn 1.000000 0.000000 0.000000
vn 1.000000 0.000000 0.000000
vn 1.000000 0.000000 0.000000
vn 1.000000 0.000000 0.000000
vn 1.000000 0.000000 0.000000
vn 1.000000 0.000000 0.000000
vn 1.000000 0.000000 0.000000
vn 1.000000 0.000000 0.000000
vn 1.000000 0.000000 0.000000
vn 1.000000 0.000000 0.000000
vn 1.000000 0.000000 0.000000
vn 1.000000 0.000000 0.000000
vn 0.000000 1.000000 -0.000000
vn 0.000000 1.000000 -0.000000
vn 0.000000 1.000000 -0.000000
vn 0.000000 1.000000 -0.000000
vn 0.000000 1.000000 -0.000000
vn 0.000000 1.000000 -0.000000
vn 1.000000 0.000000 0.000000
vn 1.000000 0.000000 0.000000
vn 1.000000 0.000000 0.000000
vn 1.000000 0.000000 0.000000
vn 1.000000 0.000000 0.000000
vn 1.000000 0.000000 0.000000
vn 1.000000 0.000000 0.000000
vn 1.000000 0.000000 0.000000
vn 1.000000 0.000000 0.000000
vn 1.000000 0.000000 0.000000
vn 1.000000 0.000000 0.000000
vn 0.000000 -1.000000 0.000000
vn 0.000000 -1.000000 0.000000
vn 0.000000 -1.000000 0.000000
vn 0.000000 -1.000000 0.000000
vn 0.000000 -1.000000 0.000000
vn 0.000000 -1.000000 0.000000
vn -1.000000 0.000000 0.000001
vn -1.000000 0.000000 0.000001
vn -1.000000 0.000000 0.000001
vn -1.000000 0.000000 0.000001
vn -1.000000 0.000000 0.000001
vn -1.000000 0.000000 0.000001
vn -1.000000 0.000000 0.000001
vn -1.000000 0.000000 0.000001
vn -1.000000 0.000000 0.000001
vn -1.000000 0.000000 0.000001
vn -1.000000 0.000000 0.000001
s 1
f 1/1/1 2/2/2 8/3/3 7/4/4
f 2/2/2 3/5/5 9/6/6 8/3/3
f 3/5/5 4/7/7 10/8/8 9/6/6
f 4/7/7 5/9/9 11/10/10 10/8/8
f 5/9/9 6/11/11 12/12/12 11/10/10
f 7/4/4 8/3/3 14/13/13 13/14/14
f 8/3/3 9/6/6 15/15/15 14/13/13
f 9/6/6 10/8/8 16/16/16 15/15/15
f 10/8/8 11/10/10 17/17/17 16/16/16
f 11/10/10 12/12/12 18/18/18 17/17/17
f 13/14/14 14/13/13 20/19/19 19/20/20
f 14/13/13 15/15/15 21/21/21 20/19/19
f 15/15/15 16/16/16 22/22/22 21/21/21
f 16/16/16 17/17/17 23/23/23 22/22/22
f 17/17/17 18/18/18 24/24/24 23/23/23
f 19/20/20 20/19/19 26/25/25 25/26/26
f 20/19/19 21/21/21 27/27/27 26/25/25
f 21/21/21 22/22/22 28/28/28 27/27/27
f 22/22/22 23/23/23 29/29/29 28/28/28
f 23/23/23 24/24/24 30/30/30 29/29/29
f 25/26/26 26/25/25 32/31/31 31/32/32
f 26/25/25 27/27/27 33/33/33 32/31/31
f 27/27/27 28/28/28 34/34/34 33/33/33
f 28/28/28 29/29/29 35/35/35 34/34/34
f 29/29/29 30/30/30 36/36/36 35/35/35
f 31/32/32 32/31/31 38/37/37 37/38/38
f 32/31/31 33/33/33 39/39/39 38/37/37
f 33/33/33 34/34/34 40/40/40 39/39/39
f 34/34/34 35/35/35 41/41/41 40/40/40
f 35/35/35 36/36/36 42/42/42 41/41/41
f 37/38/38 38/37/37 44/43/43 43/44/44
f 38/37/37 39/39/39 45/45/45 44/43/43
f 39/39/39 40/40/40 46/46/46 45/45/45
f 40/40/40 41/41/41 47/47/47 46/46/46
f 41/41/41 42/42/42 48/48/48 47/47/47
f 43/44/44 44/43/43 50/49/49 49/50/50
f 44/43/43 45/45/45 51/51/51 50/49/49
f 45/45/45 46/46/46 52/52/52 51/51/51
f 46/46/46 47/47/47 53/53/53 52/52/52
f 47/47/47 48/48/48 54/54/54 53/53/53
f 49/50/50 50/49/49 56/55/55 55/56/56
f 50/49/49 51/51/51 57/57/57 56/55/55
f 51/51/51 52/52/52 58/58/58 57/57/57
f 52/52/52 53/53/53 59/59/59 58/58/58
f 53/53/53 54/54/54 60/60/60 59/59/59
f 55/56/56 56/55/55 62/61/61 61/62/62
f 56/55/55 57/57/57 63/63/63 62/61/61
f 57/57/57 58/58/58 64/64/64 63/63/63
f 58/58/58 59/59/59 65/65/65 64/64/64
f 59/59/59 60/60/60 66/66/66 65/65/65
s 2
f 61/62/67 62/61/68 137/189/69 138/188/70
f 62/61/68 63/63/71 136/190/72 137/189/69
f 63/63/71 64/64/73 135/191/74 136/190/72
f 64/64/73 65/65/75 134/192/76 135/191/74
f 65/65/75 66/66/77 133/199/78 134/192/76
s 3
f 67/68/79 68/67/80 74/73/81 73/74/82
f 68/67/80 69/69/83 75/75/84 74/73/81
f 69/69/83 70/70/85 76/76/86 75/75/84
f 70/70/85 71/71/87 77/77/88 76/76/86
f 71/71/87 72/72/89 78/78/90 77/77/88
f 73/74/82 74/73/81 80/79/91 79/80/92
f 74/73/81 75/75/84 81/81/93 80/79/91
f 75/75/84 76/76/86 82/82/94 81/81/93
f 76/76/86 77/77/88 83/83/95 82/82/94
f 77/77/88 78/78/90 84/84/96 83/83/95
f 79/80/92 80/79/91 86/85/97 85/86/98
f 80/79/91 81/81/93 87/87/99 86/85/97
f 81/81/93 82/82/94 88/88/100 87/87/99
f 82/82/94 83/83/95 89/89/101 88/88/100
f 83/83/95 84/84/96 90/90/102 89/89/101
f 85/86/98 86/85/97 92/91/103 91/92/104
f 86/85/97 87/87/99 93/93/105 92/91/103
f 87/87/99 88/88/100 94/94/106 93/93/105
f 88/88/100 89/89/101 95/95/107 94/94/106
f 89/89/101 90/90/102 96/96/108 95/95/107
f 91/92/104 92/91/103 98/97/109 97/98/110
f 92/91/103 93/93/105 99/99/111 98/97/109
f 93/93/105 94/94/106 100/100/112 99/99/111
f 94/94/106 95/95/107 101/101/113 100/100/112
f 95/95/107 96/96/108 102/102/114 101/101/113
f 97/98/110 98/97/109 104/103/115 103/104/116
f 98/97/109 99/99/111 105/105/117 104/103/115
f 99/99/111 100/100/112 106/106/118 105/105/117
f 100/100/112 101/101/113 107/107/119 106/106/118
f 101/101/113 102/102/114 108/108/120 107/107/119
f 103/104/116 104/103/115 110/109/121 109/110/122
f 104/103/115 105/105/117 111/111/123 110/109/121
f 105/105/117 106/106/118 112/112/124 111/111/123
f 106/106/118 107/107/119 113/113/125 112/112/124
f 107/107/119 108/108/120 114/114/126 113/113/125
f 109/110/122 110/109/121 116/115/127 115/116/128
f 110/109/121 111/111/123 117/117/129 116/115/127
f 111/111/123 112/112/124 118/118/130 117/117/129
f 112/112/124 113/113/125 119/119/131 118/118/130
f 113/113/125 114/114/126 120/120/132 119/119/131
f 115/116/128 116/115/127 122/121/133 121/122/134
f 116/115/127 117/117/129 123/123/135 122/121/133
f 117/117/129 118/118/130 124/124/136 123/123/135
f 118/118/130 119/119/131 125/125/137 124/124/136
f 119/119/131 120/120/132 126/126/138 125/125/137
f 121/122/134 122/121/133 128/127/139 127/128/140
f 122/121/133 123/123/135 129/129/141 128/127/139
f 123/123/135 124/124/136 130/130/142 129/129/141
f 124/124/136 125/125/137 131/131/143 130/130/142
f 125/125/137 126/126/138 132/132/144 131/131/143
s 4
f 148/196/145 149/177/146 2/2/147 1/1/148
f 149/177/146 150/176/149 3/5/150 2/2/147
f 150/176/149 151/175/151 4/7/152 3/5/150
f 151/175/151 152/174/153 5/9/154 4/7/152
f 152/174/153 153/173/155 6/11/156 5/9/154
s 5
f 6/11/157 153/194/158 154/172/159 12/12/160
f 12/12/160 154/172/159 155/171/161 18/18/162
f 18/18/162 155/171/161 156/170/163 24/24/164
f 24/24/164 156/170/163 157/169/165 30/30/166
f 30/30/166 157/169/165 158/168/167 36/36/168
f 36/36/168 158/168/167 159/167/169 42/42/170
f 42/42/170 159/167/169 160/166/171 48/48/172
f 48/48/172 160/166/171 161/165/173 54/54/174
f 54/54/174 161/165/173 162/163/175 60/60/176
f 60/60/176 162/163/175 133/133/177 66/66/178
s 6
f 148/178/179 1/1/180 7/4/181 147/179/182
f 147/179/182 7/4/181 13/14/183 146/180/184
f 146/180/184 13/14/183 19/20/185 145/181/186
f 145/181/186 19/20/185 25/26/187 144/182/188
f 144/182/188 25/26/187 31/32/189 143/183/190
f 143/183/190 31/32/189 37/38/191 142/184/192
f 142/184/192 37/38/191 43/44/193 141/185/194
f 141/185/194 43/44/193 49/50/195 140/186/196
f 140/186/196 49/50/195 55/56/197 139/187/198
f 139/187/198 55/56/197 61/62/199 138/198/200
s 2
f 134/134/76 133/164/78 72/72/201 71/71/202
f 135/135/74 134/134/76 71/71/202 70/70/203
f 136/136/72 135/135/74 70/70/203 69/69/204
f 137/137/69 136/136/72 69/69/204 68/67/205
f 138/197/70 137/137/69 68/67/205 67/68/206
s 6
f 73/74/207 139/139/198 138/138/200 67/68/208
f 79/80/209 140/140/196 139/139/198 73/74/207
f 85/86/210 141/141/194 140/140/196 79/80/209
f 91/92/211 142/142/192 141/141/194 85/86/210
f 97/98/212 143/143/190 142/142/192 91/92/211
f 103/104/213 144/144/188 143/143/190 97/98/212
f 109/110/214 145/145/186 144/144/188 103/104/213
f 115/116/215 146/146/184 145/145/186 109/110/214
f 121/122/216 147/147/182 146/146/184 115/116/215
f 127/128/217 148/195/179 147/147/182 121/122/216
s 4
f 127/128/218 128/127/219 149/149/146 148/148/145
f 128/127/219 129/129/220 150/150/149 149/149/146
f 129/129/220 130/130/221 151/151/151 150/150/149
f 130/130/221 131/131/222 152/152/153 151/151/151
f 131/131/222 132/132/223 153/193/155 152/152/153
s 5
f 154/154/159 153/153/158 132/132/224 126/126/225
f 155/155/161 154/154/159 126/126/225 120/120/226
f 156/156/163 155/155/161 120/120/226 114/114/227
f 157/157/165 156/156/163 114/114/227 108/108/228
f 158/158/167 157/157/165 108/108/228 102/102/229
f 159/159/169 158/158/167 102/102/229 96/96/230
f 160/160/171 159/159/169 96/96/230 90/90/231
f 161/161/173 160/160/171 90/90/231 84/84/232
f 162/162/175 161/161/173 84/84/232 78/78/233
f 133/200/177 162/162/175 78/78/233 72/72/234
