# This file uses centimeters as units for non-parametric coordinates.

v -0.527197 2.002124 -0.011493
v -0.435870 2.002124 -0.011493
v -0.344543 2.002124 -0.011493
v -0.253215 2.002124 -0.011493
v -0.161888 2.002124 -0.011493
v -0.070561 2.002124 -0.011493
v -0.527197 1.901659 -0.011493
v -0.435870 1.901659 -0.011493
v -0.344543 1.901659 -0.011493
v -0.253215 1.901659 -0.011493
v -0.161888 1.901659 -0.011493
v -0.070561 1.901659 -0.011493
v -0.527197 1.801194 -0.011493
v -0.435870 1.801194 -0.011493
v -0.344543 1.801194 -0.011493
v -0.253215 1.801194 -0.011493
v -0.161888 1.801194 -0.011493
v -0.070561 1.801194 -0.011493
v -0.527197 1.700729 -0.011493
v -0.435870 1.700729 -0.011493
v -0.344543 1.700729 -0.011493
v -0.253215 1.700729 -0.011493
v -0.161888 1.700729 -0.011493
v -0.070561 1.700729 -0.011493
v -0.527197 1.600264 -0.011493
v -0.435870 1.600264 -0.011493
v -0.344543 1.600264 -0.011493
v -0.253215 1.600264 -0.011493
v -0.161888 1.600264 -0.011493
v -0.070561 1.600264 -0.011493
v -0.527197 1.499799 -0.011493
v -0.435870 1.499799 -0.011493
v -0.344543 1.499799 -0.011493
v -0.253215 1.499799 -0.011493
v -0.161888 1.499799 -0.011493
v -0.070561 1.499799 -0.011493
v -0.527197 1.399334 -0.011493
v -0.435870 1.399334 -0.011493
v -0.344543 1.399334 -0.011493
v -0.253215 1.399334 -0.011493
v -0.161888 1.399334 -0.011493
v -0.070561 1.399334 -0.011493
v -0.527197 1.298869 -0.011493
v -0.435870 1.298869 -0.011493
v -0.344543 1.298869 -0.011493
v -0.253215 1.298869 -0.011493
v -0.161888 1.298869 -0.011493
v -0.070561 1.298869 -0.011493
v -0.527197 1.198404 -0.011493
v -0.435870 1.198404 -0.011493
v -0.344543 1.198404 -0.011493
v -0.253215 1.198404 -0.011493
v -0.161888 1.198404 -0.011493
v -0.070561 1.198404 -0.011493
v -0.527197 1.097939 -0.011493
v -0.435870 1.097939 -0.011493
v -0.344543 1.097939 -0.011493
v -0.253215 1.097939 -0.011493
v -0.161888 1.097939 -0.011493
v -0.070561 1.097939 -0.011493
v -0.527197 0.997474 -0.011493
v -0.435870 0.997474 -0.011493
v -0.344543 0.997474 -0.011493
v -0.253215 0.997474 -0.011493
v -0.161888 0.997474 -0.011493
v -0.070561 0.997474 -0.011493
v -0.527197 0.997474 0.025969
v -0.435870 0.997474 0.025969
v -0.344543 0.997474 0.025969
v -0.253215 0.997474 0.025969
v -0.161888 0.997474 0.025969
v -0.070561 0.997474 0.025969
v -0.527197 1.097939 0.025969
v -0.435870 1.097939 0.025969
v -0.344543 1.097939 0.025969
v -0.253215 1.097939 0.025969
v -0.161888 1.097939 0.025969
v -0.070561 1.097939 0.025969
v -0.527197 1.198404 0.025969
v -0.435870 1.198404 0.025969
v -0.344543 1.198404 0.025969
v -0.253215 1.198404 0.025969
v -0.161888 1.198404 0.025969
v -0.070561 1.198404 0.025969
v -0.527197 1.298869 0.025969
v -0.435870 1.298869 0.025969
v -0.344543 1.298869 0.025969
v -0.253215 1.298869 0.025969
v -0.161888 1.298869 0.025969
v -0.070561 1.298869 0.025969
v -0.527197 1.399334 0.025969
v -0.435870 1.399334 0.025969
v -0.344543 1.399334 0.025969
v -0.253215 1.399334 0.025969
v -0.161888 1.399334 0.025969
v -0.070561 1.399334 0.025969
v -0.527197 1.499799 0.025969
v -0.435870 1.499799 0.025969
v -0.344543 1.499799 0.025969
v -0.253215 1.499799 0.025969
v -0.161888 1.499799 0.025969
v -0.070561 1.499799 0.025969
v -0.527197 1.600264 0.025969
v -0.435870 1.600264 0.025969
v -0.344543 1.600264 0.025969
v -0.253215 1.600264 0.025969
v -0.161888 1.600264 0.025969
v -0.070561 1.600264 0.025969
v -0.527197 1.700729 0.025969
v -0.435870 1.700729 0.025969
v -0.344543 1.700729 0.025969
v -0.253215 1.700729 0.025969
v -0.161888 1.700729 0.025969
v -0.070561 1.700729 0.025969
v -0.527197 1.801194 0.025969
v -0.435870 1.801194 0.025969
v -0.344543 1.801194 0.025969
v -0.253215 1.801194 0.025969
v -0.161888 1.801194 0.025969
v -0.070561 1.801194 0.025969
v -0.527197 1.901659 0.025969
v -0.435870 1.901659 0.025969
v -0.344543 1.901659 0.025969
v -0.253215 1.901659 0.025969
v -0.161888 1.901659 0.025969
v -0.070561 1.901659 0.025969
v -0.527197 2.002124 0.025969
v -0.435870 2.002124 0.025969
v -0.344543 2.002124 0.025969
v -0.253215 2.002124 0.025969
v -0.161888 2.002124 0.025969
v -0.070561 2.002124 0.025969
vt 0.052495 0.154047
vt 0.052495 0.195713
vt 0.098328 0.195713
vt 0.098328 0.154047
vt 0.052495 0.237380
vt 0.098328 0.237380
vt 0.052495 0.279046
vt 0.098328 0.279046
vt 0.052495 0.320713
vt 0.098328 0.320713
vt 0.052495 0.362379
vt 0.098328 0.362379
vt 0.144161 0.195713
vt 0.144161 0.154047
vt 0.144161 0.237379
vt 0.144161 0.279046
vt 0.144161 0.320713
vt 0.144161 0.362379
vt 0.189994 0.195713
vt 0.189994 0.154047
vt 0.189994 0.237380
vt 0.189994 0.279046
vt 0.189994 0.320713
vt 0.189994 0.362379
vt 0.235827 0.195713
vt 0.235827 0.154047
vt 0.235827 0.237380
vt 0.235827 0.279046
vt 0.235827 0.320713
vt 0.235827 0.362379
vt 0.281660 0.195713
vt 0.281660 0.154047
vt 0.281660 0.237380
vt 0.281660 0.279046
vt 0.281660 0.320713
vt 0.281660 0.362379
vt 0.327493 0.195713
vt 0.327493 0.154047
vt 0.327493 0.237380
vt 0.327493 0.279046
vt 0.327493 0.320713
vt 0.327493 0.362379
vt 0.373326 0.195713
vt 0.373326 0.154047
vt 0.373326 0.237380
vt 0.373326 0.279046
vt 0.373326 0.320713
vt 0.373326 0.362379
vt 0.419160 0.195713
vt 0.419160 0.154047
vt 0.419159 0.237380
vt 0.419160 0.279046
vt 0.419160 0.320713
vt 0.419159 0.362379
vt 0.464992 0.195713
vt 0.464992 0.154047
vt 0.464992 0.237380
vt 0.464992 0.279046
vt 0.464992 0.320713
vt 0.464992 0.362379
vt 0.510826 0.195713
vt 0.510826 0.154047
vt 0.510826 0.237380
vt 0.510826 0.279046
vt 0.510826 0.320713
vt 0.510826 0.362379
vt 0.510826 0.195713
vt 0.510826 0.154047
vt 0.510826 0.237380
vt 0.510826 0.279046
vt 0.510826 0.320713
vt 0.510826 0.362379
vt 0.464992 0.195713
vt 0.464992 0.154047
vt 0.464992 0.237380
vt 0.464992 0.279046
vt 0.464992 0.320713
vt 0.464992 0.362379
vt 0.419160 0.195713
vt 0.419160 0.154047
vt 0.419159 0.237380
vt 0.419160 0.279046
vt 0.419160 0.320713
vt 0.419159 0.362379
vt 0.373326 0.195713
vt 0.373326 0.154047
vt 0.373326 0.237380
vt 0.373326 0.279046
vt 0.373326 0.320713
vt 0.373326 0.362379
vt 0.327493 0.195713
vt 0.327493 0.154047
vt 0.327493 0.237380
vt 0.327493 0.279046
vt 0.327493 0.320713
vt 0.327493 0.362379
vt 0.281660 0.195713
vt 0.281660 0.154047
vt 0.281660 0.237380
vt 0.281660 0.279046
vt 0.281660 0.320713
vt 0.281660 0.362379
vt 0.235827 0.195713
vt 0.235827 0.154047
vt 0.235827 0.237380
vt 0.235827 0.279046
vt 0.235827 0.320713
vt 0.235827 0.362379
vt 0.189994 0.195713
vt 0.189994 0.154047
vt 0.189994 0.237380
vt 0.189994 0.279046
vt 0.189994 0.320713
vt 0.189994 0.362379
vt 0.144161 0.195713
vt 0.144161 0.154047
vt 0.144161 0.237379
vt 0.144161 0.279046
vt 0.144161 0.320713
vt 0.144161 0.362379
vt 0.098328 0.195713
vt 0.098328 0.154047
vt 0.098328 0.237380
vt 0.098328 0.279046
vt 0.098328 0.320713
vt 0.098328 0.362379
vt 0.052495 0.195713
vt 0.052495 0.154047
vt 0.052495 0.237380
vt 0.052495 0.279046
vt 0.052495 0.320713
vt 0.052495 0.362379
vn 0.000000 -0.000000 -1.000000
vn 0.000000 -0.000000 -1.000000
vn 0.000000 -0.000000 -1.000000
vn 0.000000 -0.000000 -1.000000
vn 0.000000 -0.000000 -1.000000
vn 0.000000 -0.000000 -1.000000
vn 0.000000 -0.000000 -1.000000
vn 0.000000 -0.000000 -1.000000
vn 0.000000 -0.000000 -1.000000
vn 0.000000 -0.000000 -1.000000
vn 0.000000 -0.000000 -1.000000
vn 0.000000 -0.000000 -1.000000
vn 0.000000 -0.000000 -1.000000
vn 0.000000 -0.000000 -1.000000
vn 0.000000 -0.000000 -1.000000
vn 0.000000 -0.000000 -1.000000
vn 0.000000 -0.000000 -1.000000
vn 0.000000 -0.000000 -1.000000
vn 0.000000 -0.000000 -1.000000
vn 0.000000 -0.000000 -1.000000
vn 0.000000 -0.000000 -1.000000
vn 0.000000 -0.000000 -1.000000
vn 0.000000 -0.000000 -1.000000
vn 0.000000 -0.000000 -1.000000
vn 0.000000 -0.000000 -1.000000
vn 0.000000 -0.000000 -1.000000
vn 0.000000 -0.000000 -1.000000
vn 0.000000 -0.000000 -1.000000
vn 0.000000 -0.000000 -1.000000
vn 0.000000 -0.000000 -1.000000
vn 0.000000 -0.000000 -1.000000
vn 0.000000 -0.000000 -1.000000
vn 0.000000 -0.000000 -1.000000
vn 0.000000 -0.000000 -1.000000
vn 0.000000 -0.000000 -1.000000
vn 0.000000 -0.000000 -1.000000
vn 0.000000 -0.000000 -1.000000
vn 0.000000 -0.000000 -1.000000
vn 0.000000 -0.000000 -1.000000
vn 0.000000 -0.000000 -1.000000
vn 0.000000 -0.000000 -1.000000
vn 0.000000 -0.000000 -1.000000
vn 0.000000 -0.000000 -1.000000
vn 0.000000 -0.000000 -1.000000
vn 0.000000 -0.000000 -1.000000
vn 0.000000 -0.000000 -1.000000
vn 0.000000 -0.000000 -1.000000
vn 0.000000 -0.000000 -1.000000
vn 0.000000 -0.000000 -1.000000
vn 0.000000 -0.000000 -1.000000
vn 0.000000 -0.000000 -1.000000
vn 0.000000 -0.000000 -1.000000
vn 0.000000 -0.000000 -1.000000
vn 0.000000 -0.000000 -1.000000
vn 0.000000 -0.000000 -1.000000
vn 0.000000 -0.000000 -1.000000
vn 0.000000 -0.000000 -1.000000
vn 0.000000 -0.000000 -1.000000
vn 0.000000 -0.000000 -1.000000
vn 0.000000 -0.000000 -1.000000
vn 0.000000 -0.000000 -1.000000
vn 0.000000 -0.000000 -1.000000
vn 0.000000 -0.000000 -1.000000
vn 0.000000 -0.000000 -1.000000
vn 0.000000 -0.000000 -1.000000
vn 0.000000 -0.000000 -1.000000
vn -0.000000 -1.000000 -0.000000
vn -0.000000 -1.000000 -0.000000
vn -0.000000 -1.000000 -0.000000
vn -0.000000 -1.000000 -0.000000
vn -0.000000 -1.000000 -0.000000
vn -0.000000 -1.000000 -0.000000
vn -0.000000 -1.000000 -0.000000
vn -0.000000 -1.000000 -0.000000
vn -0.000000 -1.000000 -0.000000
vn -0.000000 -1.000000 -0.000000
vn -0.000000 -1.000000 -0.000000
vn -0.000000 -1.000000 -0.000000
vn -0.000000 0.000000 1.000000
vn -0.000000 0.000000 1.000000
vn -0.000000 0.000000 1.000000
vn -0.000000 0.000000 1.000000
vn -0.000000 0.000000 1.000000
vn -0.000000 0.000000 1.000000
vn -0.000000 0.000000 1.000000
vn -0.000000 0.000000 1.000000
vn -0.000000 0.000000 1.000000
vn -0.000000 0.000000 1.000000
vn -0.000000 0.000000 1.000000
vn -0.000000 0.000000 1.000000
vn -0.000000 0.000000 1.000000
vn -0.000000 0.000000 1.000000
vn -0.000000 0.000000 1.000000
vn -0.000000 0.000000 1.000000
vn -0.000000 0.000000 1.000000
vn -0.000000 0.000000 1.000000
vn -0.000000 0.000000 1.000000
vn -0.000000 0.000000 1.000000
vn -0.000000 0.000000 1.000000
vn -0.000000 0.000000 1.000000
vn -0.000000 0.000000 1.000000
vn -0.000000 0.000000 1.000000
vn -0.000000 0.000000 1.000000
vn -0.000000 0.000000 1.000000
vn -0.000000 0.000000 1.000000
vn -0.000000 0.000000 1.000000
vn -0.000000 0.000000 1.000000
vn -0.000000 0.000000 1.000000
vn -0.000000 0.000000 1.000000
vn -0.000000 0.000000 1.000000
vn -0.000000 0.000000 1.000000
vn -0.000000 0.000000 1.000000
vn -0.000000 0.000000 1.000000
vn -0.000000 0.000000 1.000000
vn -0.000000 0.000000 1.000000
vn -0.000000 0.000000 1.000000
vn -0.000000 0.000000 1.000000
vn -0.000000 0.000000 1.000000
vn -0.000000 0.000000 1.000000
vn -0.000000 0.000000 1.000000
vn -0.000000 0.000000 1.000000
vn -0.000000 0.000000 1.000000
vn -0.000000 0.000000 1.000000
vn -0.000000 0.000000 1.000000
vn -0.000000 0.000000 1.000000
vn -0.000000 0.000000 1.000000
vn -0.000000 0.000000 1.000000
vn -0.000000 0.000000 1.000000
vn -0.000000 0.000000 1.000000
vn -0.000000 0.000000 1.000000
vn -0.000000 0.000000 1.000000
vn -0.000000 0.000000 1.000000
vn -0.000000 0.000000 1.000000
vn -0.000000 0.000000 1.000000
vn -0.000000 0.000000 1.000000
vn -0.000000 0.000000 1.000000
vn -0.000000 0.000000 1.000000
vn -0.000000 0.000000 1.000000
vn -0.000000 0.000000 1.000000
vn -0.000000 0.000000 1.000000
vn -0.000000 0.000000 1.000000
vn -0.000000 0.000000 1.000000
vn -0.000000 0.000000 1.000000
vn -0.000000 0.000000 1.000000
vn 0.000000 1.000000 0.000000
vn 0.000000 1.000000 0.000000
vn 0.000000 1.000000 0.000000
vn 0.000000 1.000000 0.000000
vn 0.000000 1.000000 0.000000
vn 0.000000 1.000000 0.000000
vn 0.000000 1.000000 0.000000
vn 0.000000 1.000000 0.000000
vn 0.000000 1.000000 0.000000
vn 0.000000 1.000000 0.000000
vn 0.000000 1.000000 0.000000
vn 0.000000 1.000000 0.000000
vn 1.000000 -0.000000 0.000000
vn 1.000000 -0.000000 0.000000
vn 1.000000 -0.000000 0.000000
vn 1.000000 -0.000000 0.000000
vn 1.000000 -0.000000 0.000000
vn 1.000000 -0.000000 0.000000
vn 1.000000 -0.000000 0.000000
vn 1.000000 -0.000000 0.000000
vn 1.000000 -0.000000 0.000000
vn 1.000000 -0.000000 0.000000
vn 1.000000 -0.000000 0.000000
vn 1.000000 -0.000000 0.000000
vn 1.000000 -0.000000 0.000000
vn 1.000000 -0.000000 0.000000
vn 1.000000 -0.000000 0.000000
vn 1.000000 -0.000000 0.000000
vn 1.000000 -0.000000 0.000000
vn 1.000000 -0.000000 0.000000
vn 1.000000 -0.000000 0.000000
vn 1.000000 -0.000000 0.000000
vn 1.000000 -0.000000 0.000000
vn 1.000000 -0.000000 0.000000
vn -1.000000 0.000000 -0.000000
vn -1.000000 0.000000 -0.000000
vn -1.000000 0.000000 -0.000000
vn -1.000000 0.000000 -0.000000
vn -1.000000 0.000000 -0.000000
vn -1.000000 0.000000 -0.000000
vn -1.000000 0.000000 -0.000000
vn -1.000000 0.000000 -0.000000
vn -1.000000 0.000000 -0.000000
vn -1.000000 0.000000 -0.000000
vn -1.000000 0.000000 -0.000000
vn -1.000000 0.000000 -0.000000
vn -1.000000 0.000000 -0.000000
vn -1.000000 0.000000 -0.000000
vn -1.000000 0.000000 -0.000000
vn -1.000000 0.000000 -0.000000
vn -1.000000 0.000000 -0.000000
vn -1.000000 0.000000 -0.000000
vn -1.000000 0.000000 -0.000000
vn -1.000000 0.000000 -0.000000
vn -1.000000 0.000000 -0.000000
vn -1.000000 0.000000 -0.000000
s 1
f 1/1/1 2/2/2 8/3/3 7/4/4
f 2/2/2 3/5/5 9/6/6 8/3/3
f 3/5/5 4/7/7 10/8/8 9/6/6
f 4/7/7 5/9/9 11/10/10 10/8/8
f 5/9/9 6/11/11 12/12/12 11/10/10
f 7/4/4 8/3/3 14/13/13 13/14/14
f 8/3/3 9/6/6 15/15/15 14/13/13
f 9/6/6 10/8/8 16/16/16 15/15/15
f 10/8/8 11/10/10 17/17/17 16/16/16
f 11/10/10 12/12/12 18/18/18 17/17/17
f 13/14/14 14/13/13 20/19/19 19/20/20
f 14/13/13 15/15/15 21/21/21 20/19/19
f 15/15/15 16/16/16 22/22/22 21/21/21
f 16/16/16 17/17/17 23/23/23 22/22/22
f 17/17/17 18/18/18 24/24/24 23/23/23
f 19/20/20 20/19/19 26/25/25 25/26/26
f 20/19/19 21/21/21 27/27/27 26/25/25
f 21/21/21 22/22/22 28/28/28 27/27/27
f 22/22/22 23/23/23 29/29/29 28/28/28
f 23/23/23 24/24/24 30/30/30 29/29/29
f 25/26/26 26/25/25 32/31/31 31/32/32
f 26/25/25 27/27/27 33/33/33 32/31/31
f 27/27/27 28/28/28 34/34/34 33/33/33
f 28/28/28 29/29/29 35/35/35 34/34/34
f 29/29/29 30/30/30 36/36/36 35/35/35
f 31/32/32 32/31/31 38/37/37 37/38/38
f 32/31/31 33/33/33 39/39/39 38/37/37
f 33/33/33 34/34/34 40/40/40 39/39/39
f 34/34/34 35/35/35 41/41/41 40/40/40
f 35/35/35 36/36/36 42/42/42 41/41/41
f 37/38/38 38/37/37 44/43/43 43/44/44
f 38/37/37 39/39/39 45/45/45 44/43/43
f 39/39/39 40/40/40 46/46/46 45/45/45
f 40/40/40 41/41/41 47/47/47 46/46/46
f 41/41/41 42/42/42 48/48/48 47/47/47
f 43/44/44 44/43/43 50/49/49 49/50/50
f 44/43/43 45/45/45 51/51/51 50/49/49
f 45/45/45 46/46/46 52/52/52 51/51/51
f 46/46/46 47/47/47 53/53/53 52/52/52
f 47/47/47 48/48/48 54/54/54 53/53/53
f 49/50/50 50/49/49 56/55/55 55/56/56
f 50/49/49 51/51/51 57/57/57 56/55/55
f 51/51/51 52/52/52 58/58/58 57/57/57
f 52/52/52 53/53/53 59/59/59 58/58/58
f 53/53/53 54/54/54 60/60/60 59/59/59
f 55/56/56 56/55/55 62/61/61 61/62/62
f 56/55/55 57/57/57 63/63/63 62/61/61
f 57/57/57 58/58/58 64/64/64 63/63/63
f 58/58/58 59/59/59 65/65/65 64/64/64
f 59/59/59 60/60/60 66/66/66 65/65/65
s 2
f 61/62/67 62/61/68 68/67/69 67/68/70
f 62/61/68 63/63/71 69/69/72 68/67/69
f 63/63/71 64/64/73 70/70/74 69/69/72
f 64/64/73 65/65/75 71/71/76 70/70/74
f 65/65/75 66/66/77 72/72/78 71/71/76
s 3
f 67/68/79 68/67/80 74/73/81 73/74/82
f 68/67/80 69/69/83 75/75/84 74/73/81
f 69/69/83 70/70/85 76/76/86 75/75/84
f 70/70/85 71/71/87 77/77/88 76/76/86
f 71/71/87 72/72/89 78/78/90 77/77/88
f 73/74/82 74/73/81 80/79/91 79/80/92
f 74/73/81 75/75/84 81/81/93 80/79/91
f 75/75/84 76/76/86 82/82/94 81/81/93
f 76/76/86 77/77/88 83/83/95 82/82/94
f 77/77/88 78/78/90 84/84/96 83/83/95
f 79/80/92 80/79/91 86/85/97 85/86/98
f 80/79/91 81/81/93 87/87/99 86/85/97
f 81/81/93 82/82/94 88/88/100 87/87/99
f 82/82/94 83/83/95 89/89/101 88/88/100
f 83/83/95 84/84/96 90/90/102 89/89/101
f 85/86/98 86/85/97 92/91/103 91/92/104
f 86/85/97 87/87/99 93/93/105 92/91/103
f 87/87/99 88/88/100 94/94/106 93/93/105
f 88/88/100 89/89/101 95/95/107 94/94/106
f 89/89/101 90/90/102 96/96/108 95/95/107
f 91/92/104 92/91/103 98/97/109 97/98/110
f 92/91/103 93/93/105 99/99/111 98/97/109
f 93/93/105 94/94/106 100/100/112 99/99/111
f 94/94/106 95/95/107 101/101/113 100/100/112
f 95/95/107 96/96/108 102/102/114 101/101/113
f 97/98/110 98/97/109 104/103/115 103/104/116
f 98/97/109 99/99/111 105/105/117 104/103/115
f 99/99/111 100/100/112 106/106/118 105/105/117
f 100/100/112 101/101/113 107/107/119 106/106/118
f 101/101/113 102/102/114 108/108/120 107/107/119
f 103/104/116 104/103/115 110/109/121 109/110/122
f 104/103/115 105/105/117 111/111/123 110/109/121
f 105/105/117 106/106/118 112/112/124 111/111/123
f 106/106/118 107/107/119 113/113/125 112/112/124
f 107/107/119 108/108/120 114/114/126 113/113/125
f 109/110/122 110/109/121 116/115/127 115/116/128
f 110/109/121 111/111/123 117/117/129 116/115/127
f 111/111/123 112/112/124 118/118/130 117/117/129
f 112/112/124 113/113/125 119/119/131 118/118/130
f 113/113/125 114/114/126 120/120/132 119/119/131
f 115/116/128 116/115/127 122/121/133 121/122/134
f 116/115/127 117/117/129 123/123/135 122/121/133
f 117/117/129 118/118/130 124/124/136 123/123/135
f 118/118/130 119/119/131 125/125/137 124/124/136
f 119/119/131 120/120/132 126/126/138 125/125/137
f 121/122/134 122/121/133 128/127/139 127/128/140
f 122/121/133 123/123/135 129/129/141 128/127/139
f 123/123/135 124/124/136 130/130/142 129/129/141
f 124/124/136 125/125/137 131/131/143 130/130/142
f 125/125/137 126/126/138 132/132/144 131/131/143
s 4
f 127/128/145 128/127/146 2/2/147 1/1/148
f 128/127/146 129/129/149 3/5/150 2/2/147
f 129/129/149 130/130/151 4/7/152 3/5/150
f 130/130/151 131/131/153 5/9/154 4/7/152
f 131/131/153 132/132/155 6/11/156 5/9/154
s 5
f 6/11/157 132/132/158 126/126/159 12/12/160
f 12/12/160 126/126/159 120/120/161 18/18/162
f 18/18/162 120/120/161 114/114/163 24/24/164
f 24/24/164 114/114/163 108/108/165 30/30/166
f 30/30/166 108/108/165 102/102/167 36/36/168
f 36/36/168 102/102/167 96/96/169 42/42/170
f 42/42/170 96/96/169 90/90/171 48/48/172
f 48/48/172 90/90/171 84/84/173 54/54/174
f 54/54/174 84/84/173 78/78/175 60/60/176
f 60/60/176 78/78/175 72/72/177 66/66/178
s 6
f 127/128/179 1/1/180 7/4/181 121/122/182
f 121/122/182 7/4/181 13/14/183 115/116/184
f 115/116/184 13/14/183 19/20/185 109/110/186
f 109/110/186 19/20/185 25/26/187 103/104/188
f 103/104/188 25/26/187 31/32/189 97/98/190
f 97/98/190 31/32/189 37/38/191 91/92/192
f 91/92/192 37/38/191 43/44/193 85/86/194
f 85/86/194 43/44/193 49/50/195 79/80/196
f 79/80/196 49/50/195 55/56/197 73/74/198
f 73/74/198 55/56/197 61/62/199 67/68/200
