# This file uses centimeters as units for non-parametric coordinates.

v 4.502907 4.394730 1.521177
v 5.210000 4.394730 1.521177
v 5.917094 4.394730 1.521177
v 4.502907 4.736616 1.270495
v 5.210000 4.736616 1.270495
v 5.917094 4.736616 1.270495
v 4.502907 5.205618 0.926609
v 5.210000 5.205618 0.926609
v 5.917094 5.205618 0.926609
v 4.502907 5.674620 0.582723
v 5.210000 5.674620 0.582723
v 5.917094 5.674620 0.582723
v 4.502907 6.143621 0.238837
v 5.210000 6.143621 0.238837
v 5.917094 6.143621 0.238837
v 4.348795 6.254875 0.237241
v 5.210000 7.145849 -0.416048
v 6.071205 6.254875 0.237241
vt 0.303534 0.013302
vt 0.500000 0.013317
vt 0.500000 0.174902
vt 0.303529 0.174904
vt 0.696466 0.013302
vt 0.696471 0.174904
vt 0.500000 0.336474
vt 0.303518 0.336498
vt 0.696482 0.336498
vt 0.500000 0.498006
vt 0.303726 0.498129
vt 0.696274 0.498128
vt 0.500000 0.659392
vt 0.304409 0.659931
vt 0.695591 0.659934
vt 0.500000 0.989235
vt 0.255763 0.687345
vt 0.744236 0.687343
vn 0.000000 0.591310 0.806444
vn 0.000000 0.591310 0.806444
vn 0.000000 0.591310 0.806445
vn 0.000000 0.591310 0.806445
vn 0.000000 0.591310 0.806444
vn 0.000000 0.591310 0.806445
vn 0.000000 0.591309 0.806445
vn 0.000000 0.591309 0.806445
vn 0.000000 0.591309 0.806445
vn 0.000000 0.591310 0.806445
vn 0.000000 0.591310 0.806445
vn 0.000000 0.591310 0.806445
vn 0.000000 0.547974 0.836496
vn 0.044451 0.538660 0.841350
vn -0.044451 0.538660 0.841350
vn 0.000000 0.514526 0.857475
vn 0.064743 0.513446 0.855676
vn -0.064743 0.513446 0.855676
s 1
f 1/1/1 2/2/2 5/3/3 4/4/4
f 2/2/2 3/5/5 6/6/6 5/3/3
f 4/4/4 5/3/3 8/7/7 7/8/8
f 5/3/3 6/6/6 9/9/9 8/7/7
f 7/8/8 8/7/7 11/10/10 10/11/11
f 8/7/7 9/9/9 12/12/12 11/10/10
f 10/11/11 11/10/10 14/13/13 13/14/14
f 11/10/10 12/12/12 15/15/15 14/13/13
f 13/14/14 14/13/13 17/16/16 16/17/17
f 14/13/13 15/15/15 18/18/18 17/16/16
