# This file uses centimeters as units for non-parametric coordinates.

v 4.502907 4.394730 1.521177
v 5.210000 4.394730 1.521177
v 5.917094 4.394730 1.521177
v 4.502907 4.736616 1.270495
v 5.210000 4.736616 1.270495
v 5.917094 4.736616 1.270495
v 4.502907 5.205618 0.926609
v 5.210000 5.205618 0.926609
v 5.917094 5.205618 0.926609
v 4.502907 5.674620 0.582723
v 5.210000 5.674620 0.582723
v 5.917094 5.674620 0.582723
v 4.502907 6.143622 0.238837
v 5.210000 6.143622 0.238837
v 5.917094 6.143622 0.238837
v 4.348795 6.254875 0.237241
v 5.210000 7.145849 -0.416048
v 6.071205 6.254875 0.237241
v 4.502907 4.348317 1.457878
v 5.210000 4.348317 1.457878
v 5.210000 4.690204 1.207197
v 4.502907 4.690204 1.207197
v 5.917094 4.348317 1.457878
v 5.917094 4.690204 1.207197
v 5.210000 5.159206 0.863310
v 4.502907 5.159206 0.863310
v 5.917094 5.159206 0.863310
v 5.210000 5.628207 0.519424
v 4.502907 5.628207 0.519424
v 5.917094 5.628207 0.519424
v 5.210000 6.100173 0.173468
v 4.500366 6.100265 0.173606
v 5.919636 6.100265 0.173606
v 5.210000 7.105548 -0.483211
v 4.343713 6.214574 0.170078
v 6.076288 6.214574 0.170078
vt 0.303534 0.013302
vt 0.500000 0.013317
vt 0.500000 0.174902
vt 0.303529 0.174904
vt 0.696466 0.013302
vt 0.696471 0.174904
vt 0.500000 0.336474
vt 0.303518 0.336498
vt 0.696482 0.336498
vt 0.500000 0.498006
vt 0.303726 0.498129
vt 0.696274 0.498128
vt 0.500000 0.659392
vt 0.304409 0.659931
vt 0.695591 0.659934
vt 0.500000 0.989235
vt 0.255763 0.687345
vt 0.744236 0.687343
vt 0.303534 0.013302
vt 0.500000 0.013317
vt 0.500000 0.174902
vt 0.303529 0.174904
vt 0.696466 0.013302
vt 0.696471 0.174904
vt 0.500000 0.336474
vt 0.303518 0.336498
vt 0.696482 0.336498
vt 0.500000 0.498006
vt 0.303726 0.498129
vt 0.696274 0.498128
vt 0.500000 0.659392
vt 0.304409 0.659931
vt 0.695591 0.659934
vt 0.500000 0.989235
vt 0.255763 0.687345
vt 0.744236 0.687343
vt 0.303534 0.013302
vt 0.500000 0.013317
vt 0.303529 0.174904
vt 0.696466 0.013302
vt 0.696471 0.174904
vt 0.303518 0.336498
vt 0.696482 0.336498
vt 0.303726 0.498129
vt 0.696274 0.498128
vt 0.304409 0.659931
vt 0.695591 0.659934
vt 0.500000 0.989235
vt 0.255763 0.687345
vt 0.744236 0.687343
vn 0.000000 0.591310 0.806445
vn 0.000000 0.591310 0.806445
vn 0.000000 0.591310 0.806445
vn 0.000000 0.591310 0.806445
vn 0.000000 0.591310 0.806445
vn 0.000000 0.591310 0.806445
vn 0.000000 0.591310 0.806445
vn 0.000000 0.591310 0.806445
vn 0.000000 0.591310 0.806445
vn -0.000000 0.591195 0.806529
vn 0.000059 0.591195 0.806529
vn -0.000059 0.591195 0.806529
vn -0.000000 0.547864 0.836567
vn 0.044433 0.538479 0.841467
vn -0.044433 0.538479 0.841467
vn -0.000000 0.514608 0.857425
vn 0.064468 0.513538 0.855642
vn -0.064468 0.513538 0.855642
vn 0.000000 -0.591311 -0.806444
vn 0.000000 -0.591310 -0.806444
vn 0.000000 -0.591310 -0.806444
vn 0.000000 -0.591311 -0.806444
vn 0.000000 -0.591310 -0.806444
vn 0.000000 -0.591311 -0.806444
vn 0.000000 -0.591309 -0.806445
vn 0.000000 -0.591309 -0.806445
vn 0.000000 -0.591309 -0.806445
vn 0.000000 -0.591309 -0.806445
vn 0.000000 -0.591309 -0.806445
vn 0.000000 -0.591309 -0.806445
vn -0.044451 -0.538660 -0.841350
vn -0.000000 -0.547974 -0.836496
vn 0.044451 -0.538660 -0.841350
vn -0.064743 -0.513446 -0.855676
vn -0.000000 -0.514526 -0.857475
vn 0.064743 -0.513446 -0.855676
vn 0.000000 0.806443 -0.591311
vn 0.000000 0.806443 -0.591311
vn 0.000000 0.806443 -0.591311
vn 0.000000 0.806443 -0.591311
vn 1.000000 0.000000 0.000000
vn 1.000000 0.000000 0.000000
vn 1.000000 0.000000 0.000000
vn 1.000000 0.000000 0.000000
vn 0.000000 0.806443 -0.591311
vn 0.000000 0.806443 -0.591311
vn -1.000000 0.000000 0.000000
vn -1.000000 0.000000 0.000000
vn -1.000000 0.000000 0.000000
vn -1.000000 0.000000 0.000000
vn 1.000000 0.000000 0.000000
vn 1.000000 0.000000 0.000000
vn -1.000000 0.000000 0.000000
vn -1.000000 0.000000 0.000000
vn 0.999967 -0.003902 -0.007168
vn 0.999967 -0.003901 -0.007165
vn -0.999967 -0.003903 -0.007169
vn -0.999967 -0.003901 -0.007166
vn 0.999867 -0.007797 -0.014323
vn 0.999867 -0.007797 -0.014323
vn -0.999867 -0.007799 -0.014325
vn -0.999867 -0.007799 -0.014325
vn 0.785138 -0.543708 0.296547
vn 0.785138 -0.543708 0.296547
vn 0.785138 -0.543708 0.296547
vn 0.785138 -0.543708 0.296547
vn 0.521388 0.707495 -0.477080
vn 0.521388 0.707495 -0.477080
vn 0.521388 0.707495 -0.477080
vn 0.521388 0.707495 -0.477080
vn -0.521389 0.707493 -0.477082
vn -0.521389 0.707493 -0.477082
vn -0.521389 0.707493 -0.477082
vn -0.521389 0.707493 -0.477082
vn -0.785138 -0.543709 0.296546
vn -0.785138 -0.543709 0.296545
vn -0.785138 -0.543709 0.296546
vn -0.785138 -0.543709 0.296545
s 1
f 19/37/1 20/38/2 21/3/3 22/39/4
f 20/38/2 23/40/5 24/41/6 21/3/3
f 22/39/4 21/3/3 25/7/7 26/42/8
f 21/3/3 24/41/6 27/43/9 25/7/7
f 26/42/8 25/7/7 28/10/10 29/44/11
f 25/7/7 27/43/9 30/45/12 28/10/10
f 29/44/11 28/10/10 31/13/13 32/46/14
f 28/10/10 30/45/12 33/47/15 31/13/13
f 32/46/14 31/13/13 34/48/16 35/49/17
f 31/13/13 33/47/15 36/50/18 34/48/16
s 2
f 1/19/19 4/22/20 5/21/21 2/20/22
f 2/20/22 5/21/21 6/24/23 3/23/24
f 4/22/20 7/26/25 8/25/26 5/21/21
f 5/21/21 8/25/26 9/27/27 6/24/23
f 7/26/25 10/29/28 11/28/29 8/25/26
f 8/25/26 11/28/29 12/30/30 9/27/27
f 10/29/28 13/32/31 14/31/32 11/28/29
f 11/28/29 14/31/32 15/33/33 12/30/30
f 13/32/31 16/35/34 17/34/35 14/31/32
f 14/31/32 17/34/35 18/36/36 15/33/33
s 3
f 1/1/37 2/2/38 20/38/39 19/37/40
s 4
f 4/4/41 1/1/42 19/37/43 22/39/44
s 3
f 2/2/38 3/5/45 23/40/46 20/38/39
s 5
f 3/5/47 6/6/48 24/41/49 23/40/50
s 4
f 7/8/51 4/4/41 22/39/44 26/42/52
s 5
f 6/6/48 9/9/53 27/43/54 24/41/49
s 4
f 10/11/55 7/8/51 26/42/52 29/44/56
s 5
f 9/9/53 12/12/57 30/45/58 27/43/54
s 4
f 13/14/59 10/11/55 29/44/56 32/46/60
s 5
f 12/12/57 15/15/61 33/47/62 30/45/58
s off
f 17/16/63 16/17/64 35/49/65 34/48/66
f 16/17/67 13/14/68 32/46/69 35/49/70
f 15/15/71 18/18/72 36/50/73 33/47/74
f 18/18/75 17/16/76 34/48/77 36/50/78
