# This file uses centimeters as units for non-parametric coordinates.

v 76.084571 0.000000 -24.721375
v 64.721403 0.000000 -47.022848
v 47.022848 0.000000 -64.721398
v 24.721372 0.000000 -76.084561
v 0.000000 0.000000 -80.000038
v -24.721372 0.000000 -76.084557
v -47.022839 0.000000 -64.721384
v -64.721379 0.000000 -47.022834
v -76.084542 0.000000 -24.721365
v -80.000019 0.000000 0.000000
v -76.084542 0.000000 24.721365
v -64.721375 0.000000 47.022829
v -47.022829 0.000000 64.721370
v -24.721365 0.000000 76.084533
v -0.000002 0.000000 80.000010
v 24.721358 0.000000 76.084528
v 47.022820 0.000000 64.721365
v 64.721360 0.000000 47.022824
v 76.084523 0.000000 24.721360
v 80.000000 0.000000 0.000000
v 76.084571 70.000000 -24.721375
v 64.721403 70.000000 -47.022848
v 47.022848 70.000000 -64.721398
v 24.721372 70.000000 -76.084561
v 0.000000 70.000000 -80.000038
v -24.721372 70.000000 -76.084557
v -47.022839 70.000000 -64.721384
v -64.721379 70.000000 -47.022834
v -76.084542 70.000000 -24.721365
v -80.000019 70.000000 0.000000
v -76.084542 70.000000 24.721365
v -64.721375 70.000000 47.022829
v -47.022829 70.000000 64.721370
v -24.721365 70.000000 76.084533
v -0.000002 70.000000 80.000010
v 24.721358 70.000000 76.084528
v 47.022820 70.000000 64.721365
v 64.721360 70.000000 47.022824
v 76.084523 70.000000 24.721360
v 80.000000 70.000000 0.000000
vt 0.007372 0.428486
vt 0.056635 0.428486
vt 0.105898 0.428486
vt 0.155161 0.428486
vt 0.204423 0.428486
vt 0.253686 0.428486
vt 0.302949 0.428486
vt 0.352212 0.428486
vt 0.401474 0.428486
vt 0.450737 0.428486
vt 0.500000 0.428486
vt 0.549263 0.428486
vt 0.598526 0.428486
vt 0.647788 0.428486
vt 0.697051 0.428486
vt 0.746314 0.428486
vt 0.795576 0.428486
vt 0.844839 0.428486
vt 0.894102 0.428486
vt 0.943365 0.428486
vt 0.992627 0.428486
vt 0.007372 0.575444
vt 0.056635 0.575444
vt 0.105898 0.575444
vt 0.155161 0.575444
vt 0.204423 0.575444
vt 0.253686 0.575444
vt 0.302949 0.575444
vt 0.352212 0.575444
vt 0.401474 0.575444
vt 0.450737 0.575444
vt 0.500000 0.575444
vt 0.549263 0.575444
vt 0.598526 0.575444
vt 0.647788 0.575444
vt 0.697051 0.575444
vt 0.746314 0.575444
vt 0.795576 0.575444
vt 0.844839 0.575444
vt 0.894102 0.575444
vt 0.943365 0.575444
vt 0.992627 0.575444
vn 0.951057 0.000000 -0.309016
vn 0.809017 0.000000 -0.587785
vn 0.809017 0.000000 -0.587785
vn 0.951057 0.000000 -0.309016
vn 0.587785 0.000000 -0.809017
vn 0.587785 0.000000 -0.809017
vn 0.309017 0.000000 -0.951057
vn 0.309017 0.000000 -0.951057
vn -0.000000 0.000000 -1.000000
vn -0.000000 0.000000 -1.000000
vn -0.309017 0.000000 -0.951056
vn -0.309017 0.000000 -0.951056
vn -0.587785 0.000000 -0.809017
vn -0.587785 0.000000 -0.809017
vn -0.809017 0.000000 -0.587785
vn -0.809017 0.000000 -0.587785
vn -0.951057 0.000000 -0.309017
vn -0.951057 0.000000 -0.309017
vn -1.000000 0.000000 0.000000
vn -1.000000 0.000000 0.000000
vn -0.951057 0.000000 0.309017
vn -0.951057 0.000000 0.309017
vn -0.809017 0.000000 0.587785
vn -0.809017 0.000000 0.587785
vn -0.587785 0.000000 0.809017
vn -0.587785 0.000000 0.809017
vn -0.309017 0.000000 0.951057
vn -0.309017 0.000000 0.951057
vn 0.000000 0.000000 1.000000
vn 0.000000 0.000000 1.000000
vn 0.309017 0.000000 0.951056
vn 0.309017 0.000000 0.951056
vn 0.587785 0.000000 0.809017
vn 0.587785 0.000000 0.809017
vn 0.809017 0.000000 0.587785
vn 0.809017 0.000000 0.587785
vn 0.951057 0.000000 0.309017
vn 0.951057 0.000000 0.309017
vn 1.000000 0.000000 0.000001
vn 1.000000 0.000000 0.000001
s 1
f 1/1/1 2/2/2 22/23/3 21/22/4
f 2/2/2 3/3/5 23/24/6 22/23/3
f 3/3/5 4/4/7 24/25/8 23/24/6
f 4/4/7 5/5/9 25/26/10 24/25/8
f 5/5/9 6/6/11 26/27/12 25/26/10
f 6/6/11 7/7/13 27/28/14 26/27/12
f 7/7/13 8/8/15 28/29/16 27/28/14
f 8/8/15 9/9/17 29/30/18 28/29/16
f 9/9/17 10/10/19 30/31/20 29/30/18
f 10/10/19 11/11/21 31/32/22 30/31/20
f 11/11/21 12/12/23 32/33/24 31/32/22
f 12/12/23 13/13/25 33/34/26 32/33/24
f 13/13/25 14/14/27 34/35/28 33/34/26
f 14/14/27 15/15/29 35/36/30 34/35/28
f 15/15/29 16/16/31 36/37/32 35/36/30
f 16/16/31 17/17/33 37/38/34 36/37/32
f 17/17/33 18/18/35 38/39/36 37/38/34
f 18/18/35 19/19/37 39/40/38 38/39/36
f 19/19/37 20/20/39 40/41/40 39/40/38
f 20/20/39 1/21/1 21/42/4 40/41/40
