# This file uses centimeters as units for non-parametric coordinates.

v 66.574000 0.000000 -21.631203
v 56.631228 0.000000 -41.144992
v 41.144992 0.000000 -56.631224
v 21.631201 0.000000 -66.573991
v 0.000000 0.000000 -70.000033
v -21.631201 0.000000 -66.573987
v -41.144984 0.000000 -56.631211
v -56.631207 0.000000 -41.144980
v -66.573974 0.000000 -21.631194
v -70.000017 0.000000 0.000000
v -66.573974 0.000000 21.631194
v -56.631203 0.000000 41.144975
v -41.144975 0.000000 56.631199
v -21.631194 0.000000 66.573966
v -0.000002 0.000000 70.000008
v 21.631188 0.000000 66.573962
v 41.144967 0.000000 56.631194
v 56.631190 0.000000 41.144971
v 66.573958 0.000000 21.631190
v 70.000000 0.000000 0.000000
v 66.574000 70.000000 -21.631203
v 56.631228 70.000000 -41.144992
v 41.144992 70.000000 -56.631224
v 21.631201 70.000000 -66.573991
v 0.000000 70.000000 -70.000033
v -21.631201 70.000000 -66.573987
v -41.144984 70.000000 -56.631211
v -56.631207 70.000000 -41.144980
v -66.573974 70.000000 -21.631194
v -70.000017 70.000000 0.000000
v -66.573974 70.000000 21.631194
v -56.631203 70.000000 41.144975
v -41.144975 70.000000 56.631199
v -21.631194 70.000000 66.573966
v -0.000002 70.000000 70.000008
v 21.631188 70.000000 66.573962
v 41.144967 70.000000 56.631194
v 56.631190 70.000000 41.144971
v 66.573958 70.000000 21.631190
v 70.000000 70.000000 0.000000
vt 0.006961 0.211838
vt 0.056264 0.211838
vt 0.105568 0.211838
vt 0.154872 0.211838
vt 0.204176 0.211838
vt 0.253480 0.211838
vt 0.302784 0.211838
vt 0.352088 0.211838
vt 0.401392 0.211838
vt 0.450696 0.211838
vt 0.500000 0.211838
vt 0.549304 0.211838
vt 0.598608 0.211838
vt 0.647912 0.211838
vt 0.697216 0.211838
vt 0.746520 0.211838
vt 0.795823 0.211838
vt 0.845127 0.211838
vt 0.894431 0.211838
vt 0.943735 0.211838
vt 0.993039 0.211838
vt 0.006961 0.358919
vt 0.056264 0.358919
vt 0.105568 0.358919
vt 0.154872 0.358919
vt 0.204176 0.358919
vt 0.253480 0.358919
vt 0.302784 0.358919
vt 0.352088 0.358919
vt 0.401392 0.358919
vt 0.450696 0.358919
vt 0.500000 0.358919
vt 0.549304 0.358919
vt 0.598608 0.358919
vt 0.647912 0.358919
vt 0.697216 0.358919
vt 0.746520 0.358919
vt 0.795823 0.358919
vt 0.845127 0.358919
vt 0.894431 0.358919
vt 0.943735 0.358919
vt 0.993039 0.358919
vn 0.951057 0.000000 -0.309016
vn 0.809017 0.000000 -0.587785
vn 0.809017 0.000000 -0.587785
vn 0.951057 0.000000 -0.309016
vn 0.587785 0.000000 -0.809017
vn 0.587785 0.000000 -0.809017
vn 0.309017 0.000000 -0.951057
vn 0.309017 0.000000 -0.951057
vn -0.000000 0.000000 -1.000000
vn -0.000000 0.000000 -1.000000
vn -0.309017 0.000000 -0.951056
vn -0.309017 0.000000 -0.951056
vn -0.587785 0.000000 -0.809017
vn -0.587785 0.000000 -0.809017
vn -0.809017 0.000000 -0.587785
vn -0.809017 0.000000 -0.587785
vn -0.951057 0.000000 -0.309017
vn -0.951057 0.000000 -0.309017
vn -1.000000 0.000000 0.000000
vn -1.000000 0.000000 0.000000
vn -0.951057 0.000000 0.309017
vn -0.951057 0.000000 0.309017
vn -0.809017 0.000000 0.587785
vn -0.809017 0.000000 0.587785
vn -0.587785 0.000000 0.809017
vn -0.587785 0.000000 0.809017
vn -0.309017 0.000000 0.951056
vn -0.309017 0.000000 0.951056
vn 0.000000 0.000000 1.000000
vn 0.000000 0.000000 1.000000
vn 0.309017 0.000000 0.951056
vn 0.309017 0.000000 0.951056
vn 0.587785 0.000000 0.809017
vn 0.587785 0.000000 0.809017
vn 0.809017 0.000000 0.587785
vn 0.809017 0.000000 0.587785
vn 0.951057 0.000000 0.309017
vn 0.951057 0.000000 0.309017
vn 1.000000 0.000000 0.000001
vn 1.000000 0.000000 0.000001
s 1
f 1/1/1 2/2/2 22/23/3 21/22/4
f 2/2/2 3/3/5 23/24/6 22/23/3
f 3/3/5 4/4/7 24/25/8 23/24/6
f 4/4/7 5/5/9 25/26/10 24/25/8
f 5/5/9 6/6/11 26/27/12 25/26/10
f 6/6/11 7/7/13 27/28/14 26/27/12
f 7/7/13 8/8/15 28/29/16 27/28/14
f 8/8/15 9/9/17 29/30/18 28/29/16
f 9/9/17 10/10/19 30/31/20 29/30/18
f 10/10/19 11/11/21 31/32/22 30/31/20
f 11/11/21 12/12/23 32/33/24 31/32/22
f 12/12/23 13/13/25 33/34/26 32/33/24
f 13/13/25 14/14/27 34/35/28 33/34/26
f 14/14/27 15/15/29 35/36/30 34/35/28
f 15/15/29 16/16/31 36/37/32 35/36/30
f 16/16/31 17/17/33 37/38/34 36/37/32
f 17/17/33 18/18/35 38/39/36 37/38/34
f 18/18/35 19/19/37 39/40/38 38/39/36
f 19/19/37 20/20/39 40/41/40 39/40/38
f 20/20/39 1/21/1 21/42/4 40/41/40
