# This file uses centimeters as units for non-parametric coordinates.

v -2.750000 -0.189362 19.978519
v -1.250000 -0.189362 19.978519
v -0.250000 -0.188626 8.001690
v 1.250000 -0.188626 8.001690
v -1.250000 -0.068298 19.978519
v -1.258473 -0.047837 19.978519
v -1.278929 -0.039362 19.978519
v -2.721071 -0.039362 19.978519
v -2.741527 -0.047837 19.978519
v -2.750000 -0.068298 19.978519
v 1.221071 -0.038626 8.001690
v 1.241527 -0.047100 8.001690
v 1.250000 -0.067555 8.001690
v -0.250000 -0.067555 8.001690
v -0.241527 -0.047100 8.001690
v -0.221071 -0.038626 8.001690
v -1.258483 -0.047294 18.861024
v -1.107306 -0.047105 17.494376
v -1.278963 -0.038816 18.860846
v -1.127074 -0.038626 17.488183
v -1.098823 -0.067573 17.495629
v -1.250000 -0.067763 18.862280
v -2.750000 -0.067763 18.862280
v -2.598824 -0.067573 17.495629
v -2.741514 -0.047317 18.863529
v -2.590336 -0.047127 17.496878
v -2.569149 -0.038691 17.496729
v -2.721039 -0.038880 18.869390
v -2.295178 -0.067561 16.145540
v -1.839259 -0.067555 14.872379
v -2.287269 -0.047109 16.149319
v -1.831354 -0.047100 14.876154
v -1.798329 -0.038626 14.857802
v -2.274769 -0.038649 16.187743
v 1.250000 -0.067555 9.545645
v 1.099711 -0.067822 10.912425
v 1.241527 -0.047100 9.544430
v 1.091538 -0.047214 10.911254
v 1.070406 -0.038626 10.911391
v 1.221071 -0.038626 9.538648
v 0.798140 -0.068356 12.261603
v 0.342118 -0.068371 13.535462
v 0.791461 -0.047442 12.256576
v 0.335736 -0.047449 13.530498
v 0.302454 -0.038626 13.549243
v 0.778747 -0.038626 12.219152
v -0.241527 -0.047100 9.546827
v -0.392704 -0.047100 10.913477
v -0.221071 -0.038626 9.547010
v -0.372962 -0.038626 10.919668
v -0.401177 -0.067555 10.912226
v -0.250000 -0.067555 9.545578
v -0.696917 -0.047100 12.266090
v -1.152836 -0.047100 13.539251
v -0.671234 -0.038626 12.245865
v -1.147710 -0.038626 13.575867
v -1.160742 -0.067555 13.535478
v -0.704823 -0.067555 12.262316
v -0.338575 -0.067808 14.872773
v -0.795191 -0.067561 16.145601
v -0.346257 -0.047208 14.869112
v -0.803101 -0.047101 16.141831
v -0.828809 -0.038626 16.162127
v -0.351288 -0.038626 14.832402
v 1.250000 -0.188626 9.545466
v 1.097346 -0.188626 10.911895
v -1.098823 -0.188626 17.495629
v -1.250000 -0.188815 18.862280
v -0.401177 -0.188626 10.912226
v -0.250000 -0.188626 9.545578
v -2.750000 -0.188815 18.862280
v -2.598824 -0.188626 17.495629
v -2.295178 -0.188626 16.145540
v -1.839258 -0.188626 14.872379
v -1.160742 -0.188626 13.535478
v -0.704822 -0.188626 12.262316
v -0.340401 -0.188626 14.871725
v -0.795155 -0.188626 16.145440
v 0.790385 -0.188626 12.262850
v 0.333976 -0.188626 13.536524
v -0.238948 -0.188626 8.808811
v -0.238948 -0.067555 8.808811
v -0.230466 -0.047100 8.809464
v -0.210007 -0.038626 8.809574
v 1.232027 -0.038626 8.804836
v 1.252522 -0.047091 8.807850
v 1.261016 -0.067536 8.808582
v 1.261111 -0.188626 8.809201
v -0.310705 -0.188626 10.312491
v -0.310705 -0.067555 10.312491
v -0.302232 -0.047100 10.313742
v -0.282066 -0.038626 10.317308
v 1.160613 -0.038626 10.308195
v 1.181343 -0.047145 10.310663
v 1.189683 -0.067662 10.312064
v 1.188646 -0.188626 10.313229
v -0.532786 -0.188626 11.595035
v -0.532786 -0.067555 11.595035
v -0.524559 -0.047100 11.597562
v -0.502244 -0.038626 11.590395
v 0.944078 -0.038626 11.573098
v 0.961563 -0.047334 11.591917
v 0.969070 -0.068102 11.594998
v 0.964189 -0.188626 11.594759
v -0.904253 -0.188626 12.893351
v -0.904253 -0.067555 12.893351
v -0.896348 -0.047100 12.897124
v -0.879657 -0.038626 12.905100
v 0.570466 -0.038626 12.879631
v 0.592174 -0.047483 12.889094
v 0.598710 -0.068452 12.893822
v 0.590668 -0.188626 12.892737
v -1.517557 -0.188626 14.222173
v -1.517557 -0.067555 14.222173
v -1.509652 -0.047098 14.225945
v -1.489854 -0.038624 14.234325
v -0.041326 -0.038626 14.208411
v -0.022898 -0.047328 14.218237
v -0.015837 -0.068088 14.222431
v -0.020671 -0.188626 14.222223
v -0.605628 -0.188626 15.524427
v -0.604903 -0.067630 15.524058
v -0.612722 -0.047131 15.520221
v -0.629812 -0.038626 15.512659
v -2.076215 -0.038634 15.538650
v -2.097269 -0.047103 15.527971
v -2.105176 -0.067557 15.524197
v -2.105176 -0.188626 15.524197
v -2.469845 -0.188601 16.797037
v -2.469845 -0.067543 16.797038
v -2.461603 -0.047095 16.799600
v -2.444104 -0.038650 16.819411
v -1.000384 -0.038602 16.801895
v -0.978096 -0.047074 16.794390
v -0.969855 -0.067532 16.796977
v -0.969828 -0.188601 16.797141
v -2.698222 -0.188655 18.175369
v -2.698223 -0.067605 18.175364
v -2.689734 -0.047161 18.176608
v -2.669009 -0.038730 18.179423
v -1.226943 -0.038655 18.170912
v -1.206706 -0.047135 18.174125
v -1.198222 -0.067606 18.175375
v -1.198224 -0.188655 18.175352
v -1.256245 -0.189074 19.433736
v -1.256245 -0.068017 19.433732
v -1.264731 -0.047551 19.433120
v -1.285203 -0.039074 19.433027
v -2.727260 -0.039109 19.437182
v -2.747758 -0.047563 19.434337
v -2.756245 -0.068017 19.433732
v -2.756245 -0.189074 19.433734
vt 0.486354 0.098769
vt 0.351542 0.211149
vt 0.405666 0.426748
vt 0.648481 0.753344
vt 0.594432 0.537600
vt 0.513589 0.865558
vt 0.483825 0.642651
vt 0.516183 0.321983
vt 0.350053 0.006865
vt 0.350298 0.098556
vt 0.351885 0.006853
vt 0.352100 0.098399
vt 0.649936 0.992655
vt 0.649649 0.865993
vt 0.648104 0.992670
vt 0.647847 0.866142
vt 0.659510 0.865552
vt 0.659956 0.992625
vt 0.486653 0.006678
vt 0.476417 0.099184
vt 0.476633 0.006646
vt 0.513311 0.993296
vt 0.523530 0.865173
vt 0.523333 0.993319
vt 0.340442 0.099042
vt 0.340033 0.006900
vt 0.353911 0.097911
vt 0.353718 0.006830
vt 0.646036 0.866616
vt 0.646271 0.992698
vt 0.452757 0.538356
vt 0.414800 0.423304
vt 0.464388 0.531208
vt 0.535698 0.433406
vt 0.585464 0.541405
vt 0.547333 0.426342
vt 0.503748 0.753041
vt 0.493215 0.640419
vt 0.626552 0.642489
vt 0.638875 0.754758
vt 0.614505 0.648746
vt 0.517090 0.751049
vt 0.373556 0.321898
vt 0.361170 0.209768
vt 0.385744 0.315928
vt 0.482857 0.213404
vt 0.496200 0.211452
vt 0.506789 0.324198
vt 0.472967 0.006661
vt 0.472739 0.099342
vt 0.474800 0.006648
vt 0.474583 0.099331
vt 0.362940 0.209528
vt 0.382837 0.319550
vt 0.364789 0.209561
vt 0.384525 0.319008
vt 0.637102 0.755000
vt 0.617414 0.645084
vt 0.635252 0.754966
vt 0.615749 0.645747
vt 0.526998 0.993296
vt 0.527204 0.865027
vt 0.525166 0.993314
vt 0.525362 0.865032
vt 0.515300 0.751514
vt 0.497118 0.641607
vt 0.513490 0.751738
vt 0.494944 0.639891
vt 0.463644 0.534204
vt 0.419137 0.424251
vt 0.461946 0.534861
vt 0.416476 0.422660
vt 0.583830 0.542182
vt 0.538143 0.429752
vt 0.581142 0.540554
vt 0.536441 0.430401
vt 0.484651 0.212934
vt 0.502881 0.322998
vt 0.486463 0.212713
vt 0.505059 0.324724
vt 0.513450 0.926268
vt 0.523431 0.926282
vt 0.525264 0.926230
vt 0.527101 0.926223
vt 0.646153 0.926666
vt 0.647975 0.926411
vt 0.649793 0.926345
vt 0.659733 0.926252
vt 0.508668 0.802400
vt 0.518510 0.801526
vt 0.520331 0.801339
vt 0.522147 0.801068
vt 0.640644 0.803962
vt 0.642475 0.803770
vt 0.644262 0.803556
vt 0.653996 0.802490
vt 0.494783 0.697201
vt 0.504366 0.695445
vt 0.506140 0.695066
vt 0.508103 0.695702
vt 0.625916 0.701131
vt 0.627493 0.699621
vt 0.629217 0.699166
vt 0.638613 0.697206
vt 0.470043 0.591105
vt 0.479343 0.588310
vt 0.481059 0.587724
vt 0.482598 0.587107
vt 0.599704 0.595179
vt 0.601589 0.594467
vt 0.603240 0.593772
vt 0.612303 0.590804
vt 0.428034 0.481033
vt 0.437194 0.477241
vt 0.438881 0.476560
vt 0.440631 0.475948
vt 0.557284 0.485671
vt 0.558950 0.484925
vt 0.560621 0.484180
vt 0.569705 0.480229
vt 0.529422 0.372622
vt 0.520115 0.375474
vt 0.518396 0.376070
vt 0.516828 0.376654
vt 0.399936 0.368620
vt 0.398104 0.369430
vt 0.396421 0.370018
vt 0.387203 0.372870
vt 0.361448 0.268541
vt 0.370920 0.266635
vt 0.372653 0.266233
vt 0.374219 0.264646
vt 0.491868 0.270109
vt 0.493834 0.270773
vt 0.495610 0.270390
vt 0.505192 0.268618
vt 0.345437 0.155450
vt 0.355191 0.154484
vt 0.356978 0.154284
vt 0.358806 0.154063
vt 0.477292 0.156707
vt 0.479113 0.156465
vt 0.480937 0.156278
vt 0.490785 0.155406
vt 0.486511 0.051853
vt 0.476530 0.051838
vt 0.474697 0.051886
vt 0.472859 0.051892
vt 0.353810 0.051384
vt 0.351987 0.051626
vt 0.350169 0.051684
vt 0.340227 0.051727
vn 0.380304 0.923845 0.043358
vn 0.376462 0.924275 0.063178
vn 0.005573 0.999984 0.000959
vn 0.005105 0.999987 0.000650
vn 0.909967 0.386429 0.150442
vn 0.916867 0.386172 0.101121
vn 0.992058 0.061038 0.109982
vn 0.984719 0.060660 0.163246
vn -0.006074 0.999981 -0.000970
vn -0.006523 0.999979 -0.000563
vn 0.993960 -0.000019 0.109744
vn 0.986552 0.000108 0.163447
vn -0.992095 0.060760 -0.109798
vn -0.984753 0.060427 -0.163124
vn -0.986553 -0.000002 -0.163441
vn -0.993960 -0.000002 -0.109744
vn -0.916531 0.386722 -0.102067
vn -0.909690 0.386826 -0.151093
vn -0.369790 0.927159 -0.060258
vn -0.371996 0.927387 -0.039646
vn -0.959555 0.060911 -0.274853
vn -0.939729 0.061401 -0.336362
vn -0.941456 -0.000002 -0.337136
vn -0.961322 -0.000001 -0.275427
vn -0.885369 0.389345 -0.254033
vn -0.865759 0.392069 -0.311036
vn -0.320956 0.940378 -0.112589
vn -0.337215 0.936491 -0.096283
vn -0.005909 0.999981 -0.001718
vn -0.005985 0.999980 -0.002176
vn 0.005661 0.999983 0.001613
vn 0.005440 0.999983 0.001927
vn 0.997168 0.058315 0.047495
vn 0.992586 0.052568 0.109591
vn 0.993881 -0.008172 0.110154
vn 0.998858 -0.001812 0.047749
vn 0.922579 0.383293 0.043980
vn 0.919377 0.380047 0.101537
vn 0.375725 0.925865 0.040059
vn 0.378720 0.925347 0.017459
vn 0.007005 0.999975 0.000343
vn 0.006111 0.999981 0.000693
vn -0.004887 0.999988 -0.000225
vn -0.005512 0.999985 -0.000591
vn 0.961438 0.007419 0.274922
vn 0.941530 0.001621 0.336925
vn 0.939553 -0.062417 0.336667
vn 0.959809 -0.055922 0.275026
vn 0.900460 0.350791 0.257134
vn 0.882268 0.348558 0.316403
vn 0.330433 0.936639 0.116284
vn 0.350559 0.931248 0.099424
vn 0.006152 0.999979 0.001770
vn 0.006094 0.999979 0.002218
vn -0.005623 0.999983 -0.001582
vn -0.005510 0.999983 -0.001947
vn -0.382556 0.923740 -0.018860
vn -0.380486 0.923769 -0.043374
vn -0.916972 0.385988 -0.100880
vn -0.922048 0.384596 -0.043746
vn -0.997037 0.060421 -0.047618
vn -0.992112 0.060424 -0.109833
vn -0.998863 0.000000 -0.047667
vn -0.993937 0.000000 -0.109948
vn -0.391535 0.913043 -0.114248
vn -0.393273 0.908275 -0.142736
vn -0.866401 0.391916 -0.309435
vn -0.885853 0.388997 -0.252876
vn -0.959612 0.060951 -0.274646
vn -0.939633 0.061508 -0.336612
vn -0.961422 -0.000001 -0.275077
vn -0.941456 -0.000002 -0.337136
vn 0.940027 0.055204 0.336603
vn 0.959588 0.060031 0.274932
vn 0.961340 -0.001083 0.275364
vn 0.941511 -0.006820 0.336912
vn 0.868046 0.387444 0.310456
vn 0.885873 0.388476 0.253603
vn 0.391425 0.913159 0.113702
vn 0.390702 0.909395 0.142663
vn -0.998297 0.057192 0.011473
vn -0.923777 0.382778 0.010779
vn -0.923641 0.383259 -0.000071
vn -0.998208 0.059847 -0.000171
vn -0.382311 0.924021 0.004823
vn -0.005523 0.999985 0.000561
vn -0.006225 0.999981 0.000460
vn -0.381380 0.924418 0.000504
vn 0.998100 0.060076 -0.013672
vn 0.923684 0.382946 -0.012611
vn 0.923609 0.383336 -0.000002
vn 0.998189 0.060152 -0.000001
vn 0.382529 0.923929 -0.005222
vn 0.005316 0.999986 -0.000073
vn 0.006351 0.999980 -0.000000
vn 0.381876 0.924214 0.000011
vn 1.000000 0.000388 0.000001
vn 0.999906 0.000359 -0.013705
vn 0.999934 -0.000001 -0.011463
vn 1.000000 -0.000000 -0.000286
vn 0.998190 0.060138 0.000227
vn 0.998310 0.056988 -0.011415
vn -0.999906 0.000000 0.013692
vn -1.000000 0.000000 0.000000
vn -0.998198 0.060003 0.000000
vn -0.998127 0.059627 0.013668
vn -1.000000 0.000000 0.000286
vn -0.999934 0.000000 0.011463
vn 0.006419 0.999979 0.000424
vn 0.005397 0.999985 0.000463
vn -0.005317 0.999986 0.000000
vn -0.006353 0.999980 0.000087
vn -0.906151 0.061853 -0.418408
vn -0.907959 -0.000002 -0.419059
vn -0.891725 -0.000002 -0.452577
vn -0.890041 0.061716 -0.451684
vn 0.006116 0.999977 0.002903
vn -0.005724 0.999980 -0.002627
vn -0.006110 0.999977 -0.003110
vn 0.005913 0.999978 0.003000
vn 0.908036 0.010103 0.418771
vn 0.891466 0.026737 0.452298
vn 0.891308 -0.036869 0.451896
vn 0.906657 -0.053867 0.418415
vn -0.983520 0.060535 -0.170367
vn -0.985337 -0.000000 -0.170618
vn -0.975629 -0.000001 -0.219427
vn -0.973814 0.060607 -0.219119
vn 0.975434 0.022318 0.219157
vn 0.974750 -0.039876 0.219709
vn 0.985025 -0.022369 0.170952
vn 0.984596 0.039180 0.170397
vn -0.005698 0.999983 -0.001254
vn 0.006202 0.999980 0.001406
vn 0.006394 0.999979 0.001114
vn -0.005407 0.999985 -0.000923
vn -0.975630 0.000000 -0.219424
vn -0.973856 0.060699 -0.218909
vn -0.006022 0.999981 -0.001341
vn 0.005715 0.999983 0.001244
vn 0.973776 0.061098 0.219150
vn 0.975630 0.000244 0.219424
vn 0.382677 0.923874 -0.003910
vn 0.382593 0.923917 0.000338
vn 0.923833 0.382655 -0.010396
vn 0.923740 0.383021 0.000447
vn -0.899105 0.387790 -0.203050
vn -0.359185 0.929901 -0.079190
vn 0.915516 0.370089 0.157685
vn 0.910710 0.359146 0.204011
vn 0.376549 0.924204 0.063694
vn 0.371809 0.924689 0.081900
vn -0.382664 0.923873 0.005240
vn -0.382647 0.923895 -0.000004
vn -0.923806 0.382653 0.012650
vn -0.923737 0.383028 -0.000001
vn -0.375917 0.924304 -0.065946
vn -0.377856 0.921789 -0.086775
vn -0.908990 0.386117 -0.157005
vn -0.899821 0.386814 -0.201734
vn -0.353577 0.921031 -0.163356
vn -0.327875 0.930053 -0.165832
vn -0.835106 0.393623 -0.384263
vn -0.819671 0.393546 -0.416247
vn 0.847807 0.355993 0.393055
vn 0.828761 0.367827 0.421732
vn 0.330894 0.931987 0.148020
vn 0.343131 0.922783 0.175307
vn 0.379680 0.920952 0.087696
vn 0.899543 0.387582 0.201499
vn -0.911473 -0.000001 -0.411359
vn -0.909784 0.061736 -0.410464
vn -0.837583 0.393597 -0.378861
vn -0.318871 0.937337 -0.140430
vn -0.005658 0.999981 -0.002600
vn 0.006013 0.999978 0.002714
vn 0.362944 0.917162 0.164577
vn 0.842835 0.380346 0.380744
vn 0.910650 0.043751 0.410855
vn 0.911481 -0.019047 0.410902
vn -0.997103 0.060347 -0.046302
vn -0.998963 0.000000 -0.045522
vn -0.921833 0.385184 -0.043095
vn -0.376950 0.926088 -0.016408
vn -0.007165 0.999974 -0.000003
vn 0.004730 0.999989 0.000512
vn 0.382384 0.923822 0.018288
vn 0.922036 0.384718 0.042906
vn 0.997058 0.061015 0.046406
vn 0.998963 -0.000008 0.045522
s 1
f 142/142/1 18/77/2 20/46/3 141/141/4
s 2
f 18/77/5 142/142/6 143/143/7 21/79/8
s 1
f 141/141/4 20/46/3 27/55/9 140/140/10
s 2
f 21/79/8 143/143/7 144/144/11 67/47/12
s 3
f 138/138/13 24/44/14 72/2/15 137/137/16
f 24/44/14 138/138/13 139/139/17 26/53/18
s 1
f 26/53/19 139/139/20 140/140/10 27/55/9
s 3
f 29/54/21 127/127/22 128/128/23 73/43/24
f 127/127/22 29/54/21 31/56/25 126/126/26
s 1
f 126/126/27 31/56/28 34/45/29 125/125/30
f 125/125/30 34/45/29 63/78/31 124/124/32
s 2
f 35/14/33 95/95/34 96/96/35 65/17/36
f 95/95/34 35/14/33 37/16/37 94/94/38
s 1
f 94/94/39 37/16/40 40/29/41 93/93/42
f 93/93/42 40/29/41 49/62/43 92/92/44
s 2
f 41/58/45 111/111/46 112/112/47 79/39/48
f 111/111/46 41/58/45 43/60/49 110/110/50
s 1
f 110/110/51 43/60/52 46/41/53 109/109/54
f 109/109/54 46/41/53 55/66/55 108/108/56
f 47/64/57 91/91/58 92/92/44 49/62/43
s 3
f 91/91/59 47/64/60 52/23/61 90/90/62
f 90/90/62 52/23/61 70/6/63 89/89/64
s 1
f 53/68/65 107/107/66 108/108/56 55/66/55
s 3
f 107/107/67 53/68/68 58/38/69 106/106/70
f 106/106/70 58/38/69 76/7/71 105/105/72
s 2
f 122/122/73 60/48/74 78/8/75 121/121/76
f 60/48/74 122/122/73 123/123/77 62/80/78
s 1
f 62/80/79 123/123/80 124/124/32 63/78/31
s 3
f 10/9/81 9/11/82 150/150/83 151/151/84
s 1
f 9/11/85 8/28/86 149/149/87 150/150/88
s 2
f 13/13/89 12/15/90 86/86/91 87/87/92
s 1
f 12/15/93 11/30/94 85/85/95 86/86/96
s 2
f 87/87/92 88/88/97 4/18/98 13/13/89
f 2/19/99 145/145/100 146/146/101 5/21/102
s 3
f 3/22/103 81/81/104 82/82/105 14/24/106
f 151/151/84 152/152/107 1/26/108 10/9/81
s 1
f 149/149/87 8/28/86 7/49/109 148/148/110
f 84/84/111 85/85/95 11/30/94 16/61/112
s 3
f 57/71/113 75/31/114 113/113/115 114/114/116
s 1
f 45/75/117 56/33/118 116/116/119 117/117/120
s 2
f 42/35/121 119/119/122 120/120/123 80/5/124
s 3
f 51/67/125 69/37/126 97/97/127 98/98/128
s 2
f 103/103/129 104/104/130 66/4/131 36/40/132
s 1
f 100/100/133 101/101/134 39/59/135 50/42/136
s 3
f 29/54/21 73/43/24 129/129/137 130/130/138
s 1
f 63/78/31 34/45/29 132/132/139 133/133/140
s 2
f 135/135/141 136/136/142 78/8/75 60/48/74
s 1
f 7/49/109 6/51/143 147/147/144 148/148/110
s 2
f 6/51/145 5/21/102 146/146/101 147/147/146
s 3
f 130/130/138 131/131/147 31/56/25 29/54/21
s 1
f 131/131/148 132/132/139 34/45/29 31/56/28
s 2
f 36/40/132 38/57/149 102/102/150 103/103/129
s 1
f 38/57/151 39/59/135 101/101/134 102/102/152
f 16/61/112 15/63/153 83/83/154 84/84/111
s 3
f 15/63/155 14/24/106 82/82/105 83/83/156
s 1
f 50/42/136 48/65/157 99/99/158 100/100/133
s 3
f 48/65/159 51/67/125 98/98/128 99/99/160
s 1
f 56/33/118 54/69/161 115/115/162 116/116/119
s 3
f 54/69/163 57/71/113 114/114/116 115/115/164
s 2
f 42/35/121 44/73/165 118/118/166 119/119/122
s 1
f 44/73/167 45/75/117 117/117/120 118/118/168
f 133/133/140 134/134/169 62/80/79 63/78/31
s 2
f 134/134/170 135/135/141 60/48/74 62/80/78
s 3
f 81/81/104 70/6/63 52/23/61 82/82/105
f 83/83/156 82/82/105 52/23/61 47/64/60
s 1
f 84/84/111 83/83/154 47/64/57 49/62/43
f 49/62/43 40/29/41 85/85/95 84/84/111
f 86/86/96 85/85/95 40/29/41 37/16/40
s 2
f 87/87/92 86/86/91 37/16/37 35/14/33
f 35/14/33 65/17/36 88/88/97 87/87/92
s 3
f 51/67/125 90/90/62 89/89/64 69/37/126
f 48/65/159 91/91/59 90/90/62 51/67/125
s 1
f 92/92/44 91/91/58 48/65/157 50/42/136
f 39/59/135 93/93/42 92/92/44 50/42/136
f 38/57/151 94/94/39 93/93/42 39/59/135
s 2
f 36/40/132 95/95/34 94/94/38 38/57/149
f 96/96/35 95/95/34 36/40/132 66/4/131
s 3
f 98/98/128 97/97/127 76/7/71 58/38/69
f 99/99/160 98/98/128 58/38/69 53/68/68
s 1
f 100/100/133 99/99/158 53/68/65 55/66/55
f 55/66/55 46/41/53 101/101/134 100/100/133
f 102/102/152 101/101/134 46/41/53 43/60/52
s 2
f 103/103/129 102/102/150 43/60/49 41/58/45
f 41/58/45 79/39/48 104/104/130 103/103/129
s 3
f 57/71/113 106/106/70 105/105/72 75/31/114
f 54/69/163 107/107/67 106/106/70 57/71/113
s 1
f 108/108/56 107/107/66 54/69/161 56/33/118
f 45/75/117 109/109/54 108/108/56 56/33/118
f 44/73/167 110/110/51 109/109/54 45/75/117
s 2
f 42/35/121 111/111/46 110/110/50 44/73/165
f 112/112/47 111/111/46 42/35/121 80/5/124
s 3
f 114/114/116 113/113/115 74/3/171 30/32/172
f 115/115/164 114/114/116 30/32/172 32/72/173
s 1
f 116/116/119 115/115/162 32/72/174 33/70/175
f 117/117/120 116/116/119 33/70/175 64/34/176
f 118/118/168 117/117/120 64/34/176 61/76/177
s 2
f 119/119/122 118/118/166 61/76/178 59/74/179
f 120/120/123 119/119/122 59/74/179 77/36/180
f 59/74/179 122/122/73 121/121/76 77/36/180
f 123/123/77 122/122/73 59/74/179 61/76/178
s 1
f 124/124/32 123/123/80 61/76/177 64/34/176
f 33/70/175 125/125/30 124/124/32 64/34/176
f 32/72/174 126/126/27 125/125/30 33/70/175
s 3
f 30/32/172 127/127/22 126/126/26 32/72/173
f 128/128/23 127/127/22 30/32/172 74/3/171
f 130/130/138 129/129/137 72/2/15 24/44/14
f 24/44/14 26/53/18 131/131/147 130/130/138
s 1
f 26/53/19 27/55/9 132/132/139 131/131/148
f 133/133/140 132/132/139 27/55/9 20/46/3
f 20/46/3 18/77/2 134/134/169 133/133/140
s 2
f 18/77/5 21/79/8 135/135/141 134/134/170
f 21/79/8 67/47/12 136/136/142 135/135/141
s 3
f 23/10/181 138/138/13 137/137/16 71/25/182
f 139/139/17 138/138/13 23/10/181 25/12/183
s 1
f 140/140/10 139/139/20 25/12/184 28/27/185
f 19/50/186 141/141/4 140/140/10 28/27/185
f 17/52/187 142/142/1 141/141/4 19/50/186
s 2
f 143/143/7 142/142/6 17/52/188 22/20/189
f 144/144/11 143/143/7 22/20/189 68/1/190
f 145/145/100 68/1/190 22/20/189 146/146/101
f 147/147/146 146/146/101 22/20/189 17/52/188
s 1
f 148/148/110 147/147/144 17/52/187 19/50/186
f 28/27/185 149/149/87 148/148/110 19/50/186
f 150/150/88 149/149/87 28/27/185 25/12/184
s 3
f 151/151/84 150/150/83 25/12/183 23/10/181
f 23/10/181 71/25/182 152/152/107 151/151/84
